<svg class="main-svg" xmlns="http://www.w3.org/2000/svg" xmlns:xlink="http://www.w3.org/1999/xlink" width="766" height="666" style="" viewBox="0 0 766 666"><rect x="0" y="0" width="766" height="666" style="fill: rgb(255, 255, 255); fill-opacity: 1;"/><defs id="defs-0c46af"><g class="clips"><clipPath id="clip0c46afxyplot" class="plotclip"><rect width="646" height="546"/></clipPath><clipPath class="axesclip" id="clip0c46afx"><rect x="60" y="0" width="646" height="666"/></clipPath><clipPath class="axesclip" id="clip0c46afy"><rect x="0" y="60" width="766" height="546"/></clipPath><clipPath class="axesclip" id="clip0c46afxy"><rect x="60" y="60" width="646" height="546"/></clipPath></g><g class="gradients"/><g class="patterns"/></defs><g class="bglayer"/><g class="layer-below"><g class="imagelayer"/><g class="shapelayer"/></g><g class="cartesianlayer"><g class="subplot xy"><g class="layer-subplot"><g class="shapelayer"/><g class="imagelayer"/></g><g class="gridlayer"><g class="x"><path class="xgrid crisp" transform="translate(147.34,0)" d="M0,60v546" style="stroke: rgb(238, 238, 238); stroke-opacity: 1; stroke-width: 1px;"/><path class="xgrid crisp" transform="translate(234.64,0)" d="M0,60v546" style="stroke: rgb(238, 238, 238); stroke-opacity: 1; stroke-width: 1px;"/><path class="xgrid crisp" transform="translate(321.94,0)" d="M0,60v546" style="stroke: rgb(238, 238, 238); stroke-opacity: 1; stroke-width: 1px;"/><path class="xgrid crisp" transform="translate(409.23,0)" d="M0,60v546" style="stroke: rgb(238, 238, 238); stroke-opacity: 1; stroke-width: 1px;"/><path class="xgrid crisp" transform="translate(496.53,0)" d="M0,60v546" style="stroke: rgb(238, 238, 238); stroke-opacity: 1; stroke-width: 1px;"/><path class="xgrid crisp" transform="translate(583.83,0)" d="M0,60v546" style="stroke: rgb(238, 238, 238); stroke-opacity: 1; stroke-width: 1px;"/><path class="xgrid crisp" transform="translate(671.12,0)" d="M0,60v546" style="stroke: rgb(238, 238, 238); stroke-opacity: 1; stroke-width: 1px;"/></g><g class="y"><path class="ygrid crisp" transform="translate(0,518.95)" d="M60,0h646" style="stroke: rgb(238, 238, 238); stroke-opacity: 1; stroke-width: 1px;"/><path class="ygrid crisp" transform="translate(0,459.21)" d="M60,0h646" style="stroke: rgb(238, 238, 238); stroke-opacity: 1; stroke-width: 1px;"/><path class="ygrid crisp" transform="translate(0,399.46)" d="M60,0h646" style="stroke: rgb(238, 238, 238); stroke-opacity: 1; stroke-width: 1px;"/><path class="ygrid crisp" transform="translate(0,339.72)" d="M60,0h646" style="stroke: rgb(238, 238, 238); stroke-opacity: 1; stroke-width: 1px;"/><path class="ygrid crisp" transform="translate(0,279.97)" d="M60,0h646" style="stroke: rgb(238, 238, 238); stroke-opacity: 1; stroke-width: 1px;"/><path class="ygrid crisp" transform="translate(0,220.23)" d="M60,0h646" style="stroke: rgb(238, 238, 238); stroke-opacity: 1; stroke-width: 1px;"/><path class="ygrid crisp" transform="translate(0,160.48000000000002)" d="M60,0h646" style="stroke: rgb(238, 238, 238); stroke-opacity: 1; stroke-width: 1px;"/><path class="ygrid crisp" transform="translate(0,100.72999999999999)" d="M60,0h646" style="stroke: rgb(238, 238, 238); stroke-opacity: 1; stroke-width: 1px;"/></g></g><g class="zerolinelayer"><path class="xzl zl crisp" transform="translate(60.04,0)" d="M0,60v546" style="stroke: rgb(68, 68, 68); stroke-opacity: 1; stroke-width: 1px;"/><path class="yzl zl crisp" transform="translate(0,578.7)" d="M60,0h646" style="stroke: rgb(68, 68, 68); stroke-opacity: 1; stroke-width: 1px;"/></g><path class="xlines-below"/><path class="ylines-below"/><g class="overlines-below"/><g class="xaxislayer-below"/><g class="yaxislayer-below"/><g class="overaxes-below"/><g class="plot" transform="translate(60,60)" clip-path="url(#clip0c46afxyplot)"><g class="scatterlayer mlayer"><g class="trace scatter trace28026e" style="stroke-miterlimit: 2; opacity: 1;"><g class="fills"/><g class="errorbars"/><g class="lines"><path class="js-line" d="M0,518.7L0.09,27.3L0.74,341.34L0.79,321.75L1.4,382.3L1.57,367.28L1.62,367.76L1.79,324.14L1.88,391.02L2.36,327.36L2.4,373.47L2.84,346.27L3.14,396.51L3.19,379.29L3.32,398.31L3.36,370.12L3.75,384.13L3.8,420.31L3.88,358.58L4.54,405.47L4.58,397.34L4.76,353.99L5.06,424.2L5.11,368.5L5.15,366.18L5.67,345.63L5.76,410.47L5.89,358.92L5.94,398.55L6.24,421.95L6.42,336.57L6.68,371.72L6.72,395.77L6.77,375.17L7.03,415.48L7.38,385.1L7.42,416.45L7.46,420.57L7.55,372.63L7.73,397.16L7.77,351.77L8.56,419.36L8.6,399.44L8.9,361.9L9.25,417.94L9.3,392.79L9.34,405.48L9.69,412.79L9.73,365.46L10.04,373.61L10.08,418.47L10.52,371.59L10.87,381.38L10.91,386.41L11,405.8L11.04,393.22L11.09,417.59L11.13,426.74L11.44,393.2L11.7,408.5L11.74,381.84L11.92,375.74L12.48,426.11L12.53,425.4L12.57,373.88L12.7,423.58L13.31,387.79L13.36,395.12L13.79,437.7L13.97,380.14L14.14,410.33L14.19,395.62L14.27,425.52L14.75,368.86L14.8,428.64L15.63,370.33L15.67,431.02L16.32,368.7L16.41,372.86L16.46,398.59L16.59,368.78L16.85,421.53L17.24,414.48L17.28,389.57L17.55,427.51L17.68,380.66L18.07,407.22L18.11,407.42L18.16,406.96L18.2,408.11L18.25,382.98L18.64,426.85L19.03,420.47L19.07,410.06L19.21,431.55L19.38,357.54L19.73,407.89L19.77,424.14L20.03,391.5L20.38,432.69L20.51,405.68L20.56,419.25L20.91,431.05L20.99,387.59L21.34,388.17L21.39,416.74L21.78,428.18L21.91,380.19L22.13,403.35L22.17,411.2L22.57,431.84L22.78,391.47L22.92,424.08L22.96,381.92L23.79,440.64L23.83,421.13L23.96,386.47L24.36,430.46L24.62,400.95L24.66,410.65L24.84,395.29L25.14,430.81L25.36,420.92L25.4,421.11L25.45,428.02L25.58,398.29L26.15,423.15L26.19,416.43L26.63,440.19L26.8,385.14L26.93,410.54L26.97,411.73L27.41,444.78L27.5,400.48L27.67,402.52L27.72,406.23L27.85,442.65L28.15,434.49L28.2,394.76L28.63,437.35L28.9,390.13L28.98,433.82L29.03,425.62L29.42,434.25L29.64,395.15L29.77,403.76L29.81,432.03L29.9,389.16L30.38,440.99L30.6,403.57L30.64,418.75L30.69,387.13L31.34,429.1L31.38,423.11L31.43,417.79L31.73,443.32L32.08,388.9L32.17,416.49L32.21,428.68L32.26,408.83L32.52,452.82L32.91,431.82L32.95,437.28L33.57,437.53L33.65,394.48L33.7,416.75L33.74,438.67L33.92,447.56L33.96,400.11L34.48,433.06L34.53,438.18L35.05,392.08L35.31,411.68L35.36,417.86L35.57,396.57L35.7,441L36.05,408.31L36.1,414.08L36.14,378.52L36.49,438.76L36.8,431.86L36.84,431.75L37.19,389.6L37.49,447.28L37.58,421.08L37.63,409L37.71,445.37L37.97,396.34L38.37,436.1L38.41,401.05L38.76,399.05L39.11,448.31L39.2,441.35L39.24,413.24L39.68,451.14L39.98,429.13L40.03,410.34L40.46,443.66L40.72,404.16L40.77,434.22L40.81,411.27L40.86,399.79L40.99,448.9L41.51,420.19L41.55,438.71L41.6,440.79L41.68,413.45L41.77,426.06L41.82,409.25L41.9,396.34L41.99,445.57L42.6,433.55L42.64,409.22L42.91,408.24L42.99,446.24L43.39,416.67L43.43,416.78L43.52,388.53L44.09,442.8L44.17,438L44.22,429.41L44.26,441.51L44.3,392.65L44.96,426.47L45,418.93L45.09,448.05L45.22,398.08L45.35,431.18L45.39,458.19L45.53,396.18L46.14,427.52L46.18,462.62L46.97,407.82L47.01,418.85L47.1,427.82L47.14,447.14L47.45,465.79L47.58,420.27L47.93,425.1L47.97,418.32L48.36,396.36L48.76,439.81L48.8,433.61L48.89,417.25L49.15,443.35L49.54,431.82L49.58,436.15L49.67,400.6L50.33,418.68L50.37,432.13L50.72,421.2L50.85,448.24L50.89,409.51L51.16,403.12L51.51,450.29L51.64,449.61L51.68,438.37L51.77,413.46L51.85,457.58L52.38,433.2L52.42,443.01L52.47,407.59L52.9,466.64L53.16,440.27L53.21,423.88L53.6,446.75L53.69,404.56L53.86,423.38L53.91,430.85L54.04,422.27L54.39,465.72L54.65,448.63L54.69,413.51L55,460.46L55.48,449.14L55.52,443.43L55.91,403.91L56.22,451.02L56.26,414.68L56.31,432.33L56.39,442.14L56.48,439.05L56.53,417.82L56.74,403.78L56.83,449.48L57.09,416.96L57.14,444.38L57.31,445.52L57.53,416.81L57.57,430.6L57.62,442.17L57.92,414.28L58.27,463.07L58.4,421L58.45,425.79L58.79,425.44L59.14,456.29L59.19,440.68L59.23,430.66L59.36,464.88L59.45,427.87L59.97,460.55L60.02,416.88L60.41,470.94L60.58,409.71L60.8,433.28L60.85,420.25L61.41,410.21L61.59,466.93L61.63,439.76L61.68,423.02L61.72,406.51L61.98,446.64L62.37,416.73L62.42,441.79L62.5,459.75L62.59,428.89L62.64,464.15L62.72,405.39L63.38,429.33L63.42,442.25L63.95,453.55L64.21,419.63L64.25,463.36L64.38,414.8L64.99,440.68L65.04,470.87L65.6,431.51L65.82,435.04L65.87,435.05L65.95,429.41L66.26,457.25L66.48,439.6L66.52,410.52L67.22,460.38L67.26,447.42L67.31,436.62L67.44,457.31L67.61,429.2L67.74,442.8L67.79,417.9L68.35,406.39L68.48,452.58L68.53,440.5L68.57,417.66L69.01,458.12L69.18,409.27L69.27,440.75L69.31,402.39L70.01,459.68L70.14,452.71L70.19,424.65L70.45,454.75L70.75,419.35L70.97,438.93L71.02,425.02L71.06,406.95L71.45,463.48L71.71,443.09L71.76,438.05L71.93,431.21L72.37,462.7L72.54,454.58L72.59,443.61L73.02,422.85L73.2,469.4L73.37,458.83L73.42,442.63L73.46,441.62L73.5,448.06L73.55,460.88L73.64,402.31L74.12,465.06L74.29,438.48L74.33,436.34L74.55,421.68L74.9,458.08L74.94,442.73L74.99,411.21L75.69,467.09L75.77,465.04L75.82,477.81L76.12,430.37L76.6,437.68L76.65,456.3L77.26,459.72L77.39,422.51L77.43,447.22L78.09,466.1L78.22,414.13L78.26,443.43L78.57,432.18L78.87,470.38L79,469.55L79.05,451.61L79.22,457.73L79.27,434.25L79.31,469.47L79.92,475.99L80.05,424.98L80.1,428.68L80.14,450.29L80.23,440.51L80.31,456.28L80.36,441.24L80.4,414.19L81.14,463.42L81.19,437.11L81.54,412.01L81.62,471.39L81.93,449.18L81.97,443.17L82.1,458.22L82.15,433L82.41,446.87L82.45,427.58L82.54,465.33L83.19,464.31L83.24,441.38L83.46,467.95L83.67,424.07L83.81,443.72L83.85,425.59L83.98,414.36L84.15,478.89L84.72,453.72L84.77,455.64L84.94,435.3L84.98,469.31L85.16,457.54L85.2,476.06L85.25,477.67L85.38,463.91L85.42,430.07L85.46,408.85L85.73,471.45L86.08,464.81L86.12,466.41L86.38,427.49L86.56,474.49L86.86,452.11L86.9,467.03L87.12,425.58L87.25,474.34L87.6,455.78L87.65,486.71L88.08,431.94L88.39,445.56L88.43,454.41L88.78,438.07L89.13,469.37L89.17,452L89.35,472.33L89.48,428.01L89.87,452.01L89.92,464.25L90.22,470.67L90.44,423.37L90.61,452.38L90.66,469.89L90.7,475.83L90.83,441.96L91.23,460.88L91.27,447.33L91.49,479.74L91.92,440.48L91.97,478.84L92.1,433.17L92.67,459.45L92.71,475.12L92.84,480.31L93.32,421.7L93.45,454.07L93.5,467.39L93.54,484.04L93.58,427.56L94.19,462.82L94.24,449.93L94.28,469.78L94.76,436.58L94.98,446.18L95.02,459.63L95.33,428.07L95.5,476.12L95.72,466.78L95.77,449.05L95.98,430.77L96.03,469.62L96.51,443.87L96.55,440.69L96.9,429.49L97.25,477.23L97.29,440.16L97.47,480.66L98.08,475.04L98.12,449.19L98.25,494.31L98.69,448.13L98.86,477.08L98.91,469.17L99.04,436.2L99.26,472.69L99.3,459.32L99.34,440.2L99.61,480.52L100.04,462.62L100.09,439.61L100.13,484.01L100.44,430.04L100.83,472.35L100.87,452.55L101.18,431.32L101.48,483.05L101.61,467.49L101.66,432.84L101.96,481.54L102.4,455.63L102.44,425.66L102.53,473.42L103.23,466.93L103.27,459.23L103.4,488.15L103.84,454.84L104.01,477L104.06,451.34L104.58,420.96L104.76,485.11L104.84,476.84L104.89,448.4L105.46,446.48L105.63,485.81L105.72,482.65L105.76,457.68L105.89,479.99L106.15,436.45L106.24,472.75L106.28,481.74L106.37,422.1L106.98,456.16L107.03,466.51L107.38,449.08L107.59,483.7L107.77,454.67L107.81,488.01L108.29,442.55L108.55,457.11L108.6,476.94L108.64,477.56L108.69,452.99L108.95,472.31L109.17,438.81L109.34,452.13L109.38,476.9L109.43,476.45L109.47,480.1L109.51,465.77L109.78,458.66L109.86,480.44L110.04,459.03L110.08,482.37L110.3,486.25L110.39,458.35L110.78,471.45L110.82,487L111.48,454.34L111.61,455.15L111.65,472.58L112.09,459.25L112.44,487.36L112.48,455.63L112.92,441.31L113.09,489.18L113.27,476.65L113.31,460.7L113.66,436.91L113.79,485.28L114.1,474.68L114.14,478.49L114.18,429.36L114.49,483.51L114.88,467.73L114.93,444.46L114.97,484.9L115.67,476.76L115.71,432.25L116.59,492.94L116.63,470.64L116.89,495.35L117.11,465.44L117.28,469.8L117.33,447.58L117.72,494.4L118.07,472.95L118.11,459.28L118.24,452L118.51,489.19L118.77,479.88L118.81,426.03L119.51,489.18L119.55,476.8L119.6,458.79L120.25,443.05L120.3,486.19L120.34,458.36L120.38,454.32L120.6,482.54L120.91,448.11L121.17,479.58L121.21,448.06L121.56,495.58L122,476.16L122.04,472.63L122.13,463.77L122.17,486.84L122.22,456.02L122.74,498.96L122.91,477.4L122.96,492.72L123,462.59L123.09,498.24L123.74,467.42L123.79,491.89L124.14,501.12L124.27,458.39L124.44,489.95L124.49,497.02L125.01,455.17L125.27,466.1L125.32,478.25L125.53,490.58L125.62,472.59L125.71,472.59L125.75,448.72L126.23,495.11L126.54,483.62L126.58,494.99L126.8,449.72L127.37,473.63L127.41,469.53L127.45,486.41L127.8,450.38L128.11,473.57L128.15,452.15L128.2,491.83L128.24,448.96L128.94,489.4L128.98,458.78L129.64,498.04L129.72,478.49L129.77,473.38L129.81,466.95L130.29,489.69L130.42,484.9L130.47,484.37L130.64,496.8L130.86,446.5L131.16,465.79L131.21,492.28L131.47,460.94L131.86,489.81L131.91,490.73L132.17,494.41L132.47,465.38L132.74,468.85L132.78,494.02L133.17,495.24L133.3,455.14L133.56,481.9L133.61,482.95L134.05,457.98L134.18,485.96L134.35,468.2L134.39,479.52L134.53,488.65L135.01,448.06L135.09,468.64L135.14,484.21L135.31,461.98L135.4,463.85L135.44,481.19L135.92,449.49L136.01,492.89L136.14,492.29L136.18,493.85L136.36,496.24L136.53,460.48L136.93,481.77L136.97,483.17L137.14,453.52L137.67,500.33L137.76,499.54L137.8,488.81L137.97,496.63L138.1,466.15L138.32,479.54L138.37,460.6L138.89,498.34L139.15,475.43L139.2,482.33L139.33,457.19L139.59,491.82L139.81,487.69L139.85,463.78L140.24,460.53L140.51,495.83L140.64,491.21L140.68,469.8L140.85,499.98L141.25,460.2L141.42,483.46L141.47,478.59L142.03,457.4L142.21,499.71L142.25,471.83L142.34,465.68L142.56,502.48L142.99,477.66L143.04,471.89L143.21,457.66L143.34,501.02L143.82,495.51L143.87,480.8L144.22,499.82L144.39,457.69L144.65,492.32L144.7,475.28L144.83,465.16L145.31,500.17L145.44,492.62L145.48,489.52L145.74,499.55L146.22,449.47L146.27,477.73L146.31,476.87L146.7,464.1L146.97,492.39L147.05,484.45L147.1,465.58L147.93,494.77L147.97,470L148.06,462.41L148.36,491.72L148.58,474.84L148.62,498.39L148.84,474.39L149.1,504.58L149.37,480.39L149.41,490.81L149.85,499.59L150.02,471.43L150.15,492.9L150.2,484.48L150.46,500.57L150.68,455.91L150.94,480.82L150.98,480.17L151.07,506.71L151.46,473.49L151.68,479.09L151.72,473.58L152.2,470.45L152.38,503.46L152.42,478.25L152.46,446.8L152.86,499.15L153.25,482.67L153.29,487.99L153.51,458.72L153.95,503.21L154.04,482.2L154.08,475.1L154.12,498.47L154.43,455.05L154.82,483.36L154.87,472.32L155.52,508.35L155.69,496.56L155.74,481.12L156.22,501.83L156.39,471.02L156.48,484.59L156.52,491.92L157.09,481.78L157.18,503.49L157.22,485.42L157.27,489.72L157.62,476.99L157.88,499.36L157.96,488.69L158.01,493.67L158.44,501.97L158.66,457.52L158.79,479.94L158.84,490.42L159.06,499L159.45,472L159.58,485.79L159.62,497.25L160.1,470.42L160.15,496.59L160.45,469.33L160.58,499.83L160.89,483.66L160.93,488.15L160.98,488.39L161.02,481.56L161.37,457.88L161.46,502.26L161.72,491.03L161.76,489.29L161.98,482.28L162.11,504.86L162.46,484.26L162.5,495.94L162.55,503.52L162.81,479.55L163.12,491.11L163.16,478.89L163.46,503.44L163.86,477.01L163.9,496.49L163.94,485.76L164.12,473.61L164.69,505.01L164.73,494.3L164.77,475.68L165.17,502.73L165.34,470.3L165.47,487.78L165.52,475.32L165.56,501.3L166.26,498.89L166.3,485.18L166.39,456.04L166.52,506.1L167.04,489.32L167.09,471.49L167.74,499.04L167.87,495.55L167.92,476.9L168.05,507.24L168.22,476.47L168.7,498.89L168.75,498.66L168.79,482.44L168.92,506.23L169.49,486.15L169.53,502.65L169.75,476.22L170.27,491.11L170.32,498.91L170.54,506.22L171.02,467.02L171.1,471.11L171.15,497.68L171.63,507.2L171.8,467.89L171.89,495.34L171.93,508.97L172.37,481.24L172.67,487.51L172.72,489.7L172.81,469.87L173.11,501.45L173.5,498.57L173.55,481.94L173.85,502.93L173.98,479.52L174.29,482.21L174.33,483.58L174.51,502.27L174.73,462.71L174.99,488.12L175.03,503.01L175.25,488.07L175.73,508.15L175.77,502.88L175.82,499.11L176.25,509.17L176.43,464.4L176.56,489.19L176.6,501.05L176.95,484.29L177.26,508.64L177.34,485.1L177.39,492.77L177.69,508.88L177.96,471.77L178.09,499.24L178.13,472.47L178.3,502.8L178.87,492.46L178.92,482.69L178.96,472.61L179.35,495.55L179.61,495.17L179.66,499.23L179.96,481.15L180.14,507.66L180.44,488.26L180.49,500.28L180.84,485.53L180.97,509.53L181.23,489.71L181.27,498.05L181.45,478.31L181.49,510.01L181.8,507.98L181.84,474.42L182.19,507.41L182.45,474.02L182.63,503.66L182.67,494.29L182.8,507.56L183.11,465.52L183.37,489.29L183.41,486.96L183.5,506.29L183.85,471.78L184.11,487.6L184.15,492.72L184.46,504.61L184.5,473.11L184.85,491.65L184.9,499.97L184.94,478.37L185.59,506.92L185.64,495.91L185.68,493.63L185.81,506.66L186.07,472.2L186.47,483.46L186.51,502.32L187.03,464.74L187.25,483.31L187.3,489L187.78,510.42L187.91,486.06L187.99,495.94L188.04,486.35L188.65,481.93L188.87,510.58L188.91,506.06L188.96,502.6L189.13,478.62L189.39,511.42L189.61,487.49L189.65,505.32L189.78,510.16L189.83,496.62L189.87,475.06L190.26,506.01L190.35,487.95L190.4,482.79L190.48,506.58L190.88,473.78L191.14,484.54L191.18,490.91L191.84,468.56L191.92,508.06L191.97,494.04L192.05,511.64L192.53,463.23L192.71,474.1L192.75,496.39L192.88,472.5L193.23,510.32L193.32,490.71L193.36,469.9L193.97,511.41L194.19,503.82L194.24,500.12L194.28,500.62L194.32,490.15L194.63,510.89L194.67,486.17L195.07,498.46L195.11,491.59L195.5,511.74L195.63,498.16L195.68,470.65L196.11,509.34L196.46,501.95L196.51,502.98L196.64,488.61L196.77,506.04L196.81,492.96L196.86,487.76L196.99,485.96L197.51,504.35L197.6,497.98L197.64,496.18L197.95,486.39L198.12,506.83L198.3,489.95L198.34,485.94L198.43,476.1L198.6,511.64L199.08,504.13L199.13,479.56L199.21,507.64L199.74,474.08L199.87,489.46L199.91,492.46L200.26,486.17L200.3,508.6L200.61,504.86L200.65,489.8L200.96,513.41L201.09,472.35L201.44,503.96L201.48,491.29L202.09,482.67L202.18,511.11L202.27,504.67L202.31,503.4L202.4,508.74L202.44,488.33L202.49,482.35L202.92,513.18L203.05,500.96L203.1,506.67L203.49,484.09L203.84,495.32L203.88,496.71L203.93,514.66L204.01,473.73L204.58,495.72L204.62,478.72L204.89,477.36L205.06,507.61L205.37,489.8L205.41,480.51L205.5,462.97L205.59,502.16L206.15,484.86L206.2,484.08L206.5,455.08L206.94,507.26L206.98,503.83L207.03,490.59L207.16,480.77L207.68,508.14L207.77,506.85L207.81,485.7L208.38,481.74L208.55,511.17L208.6,501.85L208.64,503.32L208.77,509.69L208.82,485.6L209.34,497.97L209.38,491.88L209.43,511.7L209.73,487.16L210.12,490.78L210.17,465.52L210.39,510.81L210.91,507.96L210.95,475.79L211.17,507.74L211.7,494.12L211.74,494.06L211.87,509.52L211.91,481.23L212.39,492.66L212.44,495.24L212.66,512.89L213.01,476.94L213.22,510.08L213.27,499.07L213.31,513.22L213.97,485.06L214.01,512.04L214.05,502.05L214.23,511.52L214.8,474.66L214.84,499.02L214.88,511.7L215.19,482.66L215.54,505.01L215.58,489.67L215.71,489.22L216.24,509.92L216.32,507.41L216.37,498.55L216.72,512.37L216.93,486.94L217.06,493.84L217.11,494.33L217.59,506.4L217.76,486.9L217.85,498.76L217.89,487.61L218.29,513.25L218.77,501.74L218.81,476.28L219.12,507.74L219.6,491.73L219.64,489.38L219.68,489.22L219.73,500.25L219.77,500.86L219.81,513L220.08,513.28L220.34,481.25L220.64,486.72L220.69,496.28L220.91,514.28L221.34,474.93L221.43,494.04L221.47,497.84L221.87,494.89L221.95,511.49L222.17,504.03L222.22,497.34L222.26,480.91L222.35,512.39L222.91,481.38L222.96,502.12L223.09,483.15L223.52,513.75L223.74,491.41L223.79,496.18L223.92,454.52L224.31,513.14L224.57,503.72L224.62,490.26L225.14,477.77L225.36,508.82L225.4,501.06L225.45,503.56L225.71,485.15L225.97,498.94L226.01,501.8L226.23,512.62L226.49,479.33L226.62,500.93L226.67,486.39L226.8,512.31L227.15,481.64L227.45,503.1L227.5,494.27L227.76,512.45L227.93,493.83L228.24,493.99L228.28,490.61L228.63,512.78L228.89,490.55L229.02,508.56L229.07,501.91L229.16,480.46L229.64,507.01L229.72,480.96L229.77,503.19L229.85,480.15L230.2,511.46L230.42,489.57L230.46,488.58L230.64,474.9L230.81,507.58L231.16,504.63L231.21,485.19L231.56,511.54L231.69,501.44L231.73,483.82L231.95,515.09L232.47,497.46L232.52,498.47L232.6,507.62L232.69,494.79L232.73,512.18L233,512.44L233.26,491.63L233.52,496.41L233.56,511.58L234.04,487.18L234.31,499.32L234.35,500.16L234.61,515.68L234.7,486.25L235.09,498.17L235.14,485.21L235.83,511.15L235.92,507.3L235.96,488.82L236.27,512.02L236.66,510.69L236.71,489.62L236.79,474.63L237.19,511.48L237.49,510.13L237.54,490.39L237.89,478.33L237.97,508.74L238.23,497.08L238.28,498.92L238.5,483.81L238.85,508.88L238.98,502.09L239.02,506.92L239.06,487.97L239.72,516.29L239.76,509.16L239.81,510.75L240.33,512.43L240.5,490.54L240.59,493.57L240.64,510.92L240.77,511.71L241.33,475.36L241.38,495.61L241.42,496.96L241.51,491.55L242.03,514.05L242.08,504.52L242.12,500.84L242.56,480.92L242.6,512.26L242.82,493.1L242.86,506.73L243.12,511.21L243.65,463.73L243.69,498.23L244.17,511.78L244.3,491.59L244.39,493.91L244.43,489.84L244.56,507.88L244.69,484.05L244.96,491.06L245,504.51L245.09,477.21L245.22,512.44L245.65,496.98L245.7,503.79L246,495.93L246.13,512.58L246.44,509.11L246.48,502.29L247.01,514.73L247.23,489.47L247.27,503.34L247.44,512L247.66,489.56L248.01,499.84L248.06,504.21L248.4,510.68L248.67,487.63L248.8,507.23L248.84,509.21L249.02,485.53L249.15,510.18L249.54,506.43L249.58,512.1L249.67,511.66L249.71,505.05L249.89,512.49L250.5,488.58L250.54,509.85L250.76,512.56L250.89,461.97L251.29,507.28L251.33,498.5L251.5,492.02L251.85,511.86L252.11,511.19L252.16,506.51L252.29,495.1L252.46,508.08L252.51,511.05L252.55,496.64L253.03,511.74L253.25,508.48L253.29,515.58L253.64,493.28L254.08,499.55L254.12,510.8L254.6,515.81L254.91,473.5L254.95,510.21L255.21,481.38L255.39,514.29L255.69,502.5L255.74,501.96L255.82,497.15L255.91,504.48L256,503.67L256.04,512.63L256.44,486.33L256.78,502.39L256.83,510.47L257.05,484L257.4,511.64L257.66,498.3L257.7,498.64L257.92,464.8L258.05,511.28L258.31,488.24L258.36,505.45L258.57,512.01L258.66,489.28L259.1,503.69L259.14,510.3L259.19,514.87L259.27,483.77L259.75,512.82L259.8,500.57L260.06,496.93L260.5,513.8L260.54,510.68L260.58,499.73L261.06,511.7L261.19,489.9L261.28,502.43L261.32,502.73L261.41,514.92L261.63,491.33L261.98,507.01L262.02,496.35L262.11,478.1L262.2,514.61L262.72,500.57L262.76,490.64L262.98,511.97L263.51,511.81L263.55,501.98L263.77,508.04L263.81,495.53L264.12,499.42L264.16,491.84L264.34,513.17L264.77,479.78L264.95,508.07L264.99,508.69L265.3,484.91L265.38,515.52L265.56,506.31L265.6,497.84L265.78,497.56L266.13,513.79L266.39,505.69L266.43,507.94L266.56,511.72L266.61,487.33L266.69,510.63L266.74,513.2L266.78,513.66L266.82,497.76L267.17,514.87L267.22,488.82L267.61,512.88L267.65,501.74L267.83,515.66L268,499.6L268.05,478.1L268.22,513.68L268.88,509.43L268.92,502.28L269.31,486.01L269.44,514.78L269.66,502.09L269.71,493.72L270.27,489.74L270.36,513.53L270.45,506.28L270.49,499.08L270.53,515.59L271.1,489.15L271.23,513.24L271.28,503.23L271.58,515.02L271.71,499.68L271.97,506.14L272.02,490.96L272.06,511.94L272.63,476.44L272.8,508.25L272.85,508.57L272.93,512.4L273.37,494.71L273.59,497.74L273.63,510.53L273.68,514.88L273.81,485.38L274.29,505.52L274.33,499.16L274.81,514.78L274.86,496.26L275.12,512.7L275.16,505.77L275.82,513.83L275.95,492.06L275.99,502.8L276.56,490.39L276.6,514.03L276.73,512.53L276.78,508.74L277.34,496.59L277.39,515.22L277.56,502.02L277.61,511.92L278.09,499.76L278.22,515.06L278.39,499.83L278.43,512.84L278.48,513.96L278.52,499.43L278.57,504.84L278.61,499.95L278.7,515.4L279.13,514.87L279.18,489.18L279.35,516.47L279.7,487.24L279.96,505.86L280.01,500.17L280.14,491.28L280.27,508.31L280.4,507.69L280.44,508.01L280.88,512.64L281.27,483.71L281.32,510.43L281.53,511.99L282.1,490.77L282.14,505.17L282.28,486.34L282.89,515.63L282.93,497.6L283.37,484.82L283.63,514.46L283.67,505.9L283.72,501.58L283.8,514.05L283.93,496.46L284.24,498.32L284.28,510.2L284.33,510.01L284.37,517.49L284.59,489.48L285.11,515.07L285.16,513.23L285.24,514.23L285.29,511.33L285.33,488.98L285.51,515.87L285.99,505.9L286.03,492.28L286.07,516.38L286.77,510.72L286.82,512.33L287.12,515.59L287.56,488.16L287.6,504.58L287.64,508.1L287.73,512.54L287.78,503.9L288.04,512.52L288.08,496.02L288.3,514.9L288.69,486.11L288.82,504.45L288.87,512.47L288.91,490.91L289.43,517.27L289.61,504.05L289.65,508.89L290,503.18L290.18,517.03L290.35,506.03L290.39,463.46L290.61,515.46L291.18,506.95L291.22,503.24L291.49,516.88L291.57,492.18L291.92,516.32L291.97,502.57L292.4,515.04L292.53,498.84L292.71,504.06L292.75,499.35L293.06,495.08L293.45,516.12L293.54,511.68L293.58,511.91L293.62,511.14L293.67,494.72L293.97,494.38L294.28,515.74L294.41,512.48L294.45,501.8L294.98,512.83L295.06,494.37L295.11,495.53L295.15,507.69L295.41,491.8L295.46,509.13L295.72,497.2L295.76,515.98L296.03,493.52L296.55,496.45L296.59,507.89L296.64,513.16L297.03,481.92L297.29,511.63L297.33,505.53L297.68,493.96L297.77,515.06L298.03,498.07L298.08,514.4L298.21,487.25L298.69,512.76L298.73,510.61L299.34,483.17L299.43,517.27L299.47,509.84L299.52,507.17L299.69,482.1L300.22,516.65L300.26,503.58L300.43,497.09L300.78,511.49L300.83,511.36L300.87,470.48L300.96,516.29L301.61,503.15L301.66,497.94L301.92,515.82L302.27,488.23L302.44,514.59L302.49,493.45L302.53,516.16L303.27,511.78L303.31,510.27L303.53,485.29L303.66,513.69L303.97,503.03L304.01,512.41L304.27,514.36L304.45,488.23L304.75,508.94L304.8,505.4L305.06,491.27L305.45,515.18L305.67,513.53L305.72,510.55L305.76,516.65L306.37,498.66L306.41,514.4L306.46,504.06L306.94,517.02L307.02,489.81L307.2,503.36L307.24,508.9L307.29,498.73L307.55,515.64L308.03,498.78L308.07,506.62L308.6,494.03L308.73,514.92L308.77,508.61L308.81,499.86L309.29,485.2L309.51,514.68L309.6,509.43L309.64,504.92L309.69,504.68L309.73,515L310.08,483.79L310.34,515.89L310.47,500.89L310.52,499.88L311.08,514.18L311.17,492.94L311.26,508.97L311.3,507.29L311.52,516.09L311.74,484.9L312.04,507.95L312.09,511.92L312.52,515.2L312.87,496.06L312.92,515.89L313,482.08L313.7,491.37L313.75,510.14L313.83,515.25L314.1,496.74L314.44,498.23L314.49,512.84L314.66,514.31L314.75,485.4L315.06,506.48L315.1,506.61L315.32,496.33L315.62,514.18L315.75,509.53L315.8,489.93L315.89,516.6L316.58,508.03L316.63,506.14L317.02,515.81L317.19,500.64L317.41,514.88L317.46,514.14L317.76,499.09L318.02,516.66L318.24,503.6L318.29,514.54L318.33,514.81L318.37,508.77L318.64,496.66L318.98,516.71L319.03,503.83L319.25,515.52L319.42,500.84L319.77,514.41L319.81,509.97L319.9,516.48L320.25,501.53L320.51,511.81L320.56,509.24L320.73,494.28L321.08,516.29L321.25,514.33L321.3,513.5L321.47,516.84L321.78,473.32L322.04,501.77L322.08,508.84L322.21,486.95L322.43,515.74L322.52,509.18L322.56,512.97L322.91,501.63L323.26,513.89L323.35,508.06L323.39,511.8L323.61,517.36L323.74,502.43L323.83,513.35L323.87,488.44L324.27,516.48L324.4,474.52L324.61,498.96L324.66,495.02L324.79,516.05L325.31,473.27L325.44,514.06L325.49,508.89L325.58,516.03L325.62,507.09L325.66,510.77L325.71,502.34L326.1,496.54L326.32,515.11L326.4,514.82L326.45,493.17L326.67,513.12L326.88,491.86L327.19,512.58L327.23,498.3L327.28,515.34L327.8,482.1L327.93,509.3L327.98,487.66L328.19,516.89L328.72,511.71L328.76,486.87L328.81,469.51L329.07,514.39L329.46,499.83L329.5,516.49L329.77,498.7L329.81,517.62L330.29,505.44L330.33,506.57L330.46,517.06L330.55,493.07L331.03,512.08L331.08,495.67L331.21,489.81L331.25,515.78L331.82,510.13L331.86,486.76L332.43,514.43L332.6,509.93L332.65,509.11L332.78,499.89L333.17,514.35L333.26,512.42L333.3,496.37L333.39,515.73L334.04,514.22L334.09,513.12L334.39,488.29L334.83,514.97L334.87,507.3L335.05,515.76L335.44,498.26L335.57,511.79L335.61,500.91L336.05,491.65L336.31,517.93L336.4,515.84L336.44,509.89L337.01,504.18L337.05,516.54L337.1,511.84L337.14,516.91L337.27,517.24L337.62,502.62L337.8,513.83L337.84,515.28L337.93,492.77L338.5,516.49L338.54,505.75L338.58,511.98L338.63,495.99L339.15,514.71L339.32,512.17L339.37,515.65L339.41,516.58L339.46,507.32L339.5,498.86L339.98,516.28L340.28,511.81L340.33,516.31L340.5,490.34L341.03,512.19L341.07,509.86L341.38,517.78L341.77,488.59L341.81,498.18L341.86,510.23L342.25,500.16L342.29,515.75L342.51,513.2L342.55,503.7L342.69,496.6L342.95,514.67L343.12,506.07L343.17,483.8L343.86,518.11L343.95,511.81L343.99,508.53L344.13,498.58L344.17,517.63L344.74,515.09L344.78,511.53L344.87,517.47L345.09,508.26L345.22,511.55L345.26,508.44L345.57,516.64L345.74,492.78L346,513.65L346.05,512.57L346.35,517.38L346.53,494.39L346.83,495.95L346.88,507.72L347.05,496.66L347.09,516.57L347.57,506.1L347.62,514.21L347.75,499.49L347.88,516.32L348.1,510.38L348.14,502.94L348.23,498.85L348.84,516.37L348.93,512.62L348.97,509.19L349.15,517.08L349.49,498.37L349.67,499.64L349.71,514.28L350.02,496.66L350.06,516.72L350.46,514.14L350.5,508.98L350.63,502.57L351.11,517.67L351.24,512.56L351.28,510.05L351.33,515.93L351.63,492.85L351.81,504.71L351.85,474.15L352.29,516.74L352.64,515.29L352.68,510.25L352.72,516.33L353.03,505.2L353.34,505.44L353.38,498.83L353.77,517.5L354.12,512.59L354.17,509.6L354.43,492.28L354.69,517.38L354.91,514.37L354.95,508.68L355.52,497.38L355.65,517.26L355.69,506.93L356.09,498.15L356.26,517.82L356.39,505.4L356.43,516.71L356.7,517.18L356.78,501.29L356.92,512.35L356.96,517.01L357.09,487.38L357.35,517.7L357.66,508.02L357.7,513.78L357.74,514.16L357.79,502.6L358.57,517.32L358.62,510.2L359.1,517.97L359.23,501.45L359.36,514.24L359.4,492.43L359.45,516.18L360.15,510.45L360.19,503.59L360.63,517.77L360.84,469.17L360.89,515.55L361.19,485.26L361.67,492.96L361.72,507.97L362.15,516.35L362.46,489.02L362.5,512.29L362.55,482.84L362.76,516.46L363.24,500.97L363.29,499.23L363.9,478.95L364.07,517.54L364.12,509.83L364.25,502.08L364.47,515L364.77,510.33L364.82,493.85L364.86,515.36L365.34,486.49L365.56,515.1L365.6,508.81L365.78,495.63L366.04,516.28L366.34,497.68L366.39,511.36L366.52,516.24L366.74,496.19L366.95,510.54L367,480.11L367.39,516.12L367.78,508.79L367.83,505.55L368.26,516.84L368.44,498.45L368.57,506.79L368.61,512.11L368.83,515.75L369.14,503.57L369.31,514.02L369.35,517.69L369.49,497.15L370.1,512.4L370.14,510.99L370.36,517.65L370.45,503.66L370.62,508.85L370.66,513.86L371.28,517.42L371.32,501.21L371.36,512.45L371.41,514.98L371.45,516L371.49,497.46L372.1,493.77L372.15,517.73L372.24,507.94L372.28,509.54L372.58,503.11L372.72,517.31L373.06,516.06L373.11,491.57L373.15,517.13L373.89,513.79L373.94,503.13L374.07,516.38L374.16,498.23L374.59,512.94L374.64,509.52L374.77,505.72L375.03,516.57L375.29,507.38L375.33,504.24L375.42,517.35L375.64,487.82L376.08,513.34L376.12,507.74L376.21,516.54L376.56,498.13L376.69,506.41L376.73,502.29L376.86,480.02L377.21,516.49L377.47,512.11L377.52,495.12L377.91,517.33L378.26,507.29L378.3,506.3L378.43,516.16L378.7,505.06L378.83,510.47L378.87,496.67L379,513.94L379.22,506.46L379.26,496.86L379.48,514.18L379.66,487.27L380.01,509.76L380.05,493.32L380.49,515.3L380.79,506.53L380.83,486.96L380.92,515.71L381.62,512.27L381.66,486.79L382.45,516.97L382.49,509.16L382.54,503.32L382.71,516.71L383.15,509.54L383.19,517.88L383.76,474.32L384.02,503.58L384.06,503.32L384.15,517.41L384.68,508.83L384.72,505.52L385.2,517.15L385.24,497.54L385.5,515L385.55,508.48L385.98,500.03L386.12,516.14L386.25,510.33L386.29,511.2L386.68,516.55L386.81,500.44L386.86,517.15L387.03,501.38L387.6,515.8L387.64,515.27L387.69,493.25L387.86,517.74L388.34,512.01L388.39,517.07L389.04,500.2L389.08,518.16L389.13,514.49L389.17,515.87L389.56,516.31L389.65,495.16L389.91,513.53L389.96,516.95L390.44,501.44L390.61,517.32L390.7,513.01L390.74,514.38L391.18,491.33L391.31,515.87L391.53,506.3L391.57,514.91L391.66,498.25L391.92,517.51L392.31,505.85L392.36,507.09L392.4,506.78L392.49,510.89L392.53,479.62L392.97,518.13L393.32,513.6L393.36,513.74L393.41,514.15L393.45,493.24L393.54,517.66L394.06,480.41L394.19,517.63L394.23,507.62L394.37,517.96L394.85,500.53L394.89,508.93L394.93,512.99L395.02,516.49L395.11,501.05L395.24,509.71L395.28,490.41L395.5,516.32L396.07,507.06L396.11,506.62L396.46,514.79L396.59,495.35L396.81,509.38L396.85,509.84L396.94,499.07L397.29,514.49L397.33,516.57L397.51,496.59L398.03,516.86L398.16,506.56L398.21,513.4L398.25,514.04L398.29,502.23L398.56,516.43L398.77,490.99L399.04,512.61L399.08,498.87L399.12,517L399.25,492.64L399.82,511.83L399.87,511.34L400,516.51L400.13,486.39L400.48,502.72L400.52,502.62L400.56,496.05L400.65,517.97L401.17,513.02L401.22,514.91L401.44,507.2L401.61,517.17L401.65,510.01L401.7,504.76L401.74,518L401.83,498.34L402.44,515.16L402.48,508.47L402.53,516.87L402.57,503.66L403.23,512.37L403.27,514.36L403.49,498.71L403.58,516.79L404.01,515.46L404.06,512.36L404.1,512.69L404.14,503.62L404.36,517.45L404.93,516.53L404.97,517.13L405.06,498.43L405.36,517.26L405.58,513.95L405.63,515.96L405.98,517.94L406.06,495.97L406.37,512.31L406.41,516.81L406.46,501.26L407.15,509.34L407.2,517.03L407.37,517.64L407.46,509.25L407.94,513.95L407.98,516.98L408.07,518.27L408.11,508.78L408.6,478.75L408.68,518.25L408.86,517.39L408.9,514.62L409.08,510.72L409.38,516.05L409.42,513.89L409.47,509.28L409.82,517.24L410.12,509.24L410.25,515.42L410.3,516.23L410.6,506.31L411.08,507.08L411.13,518.27L411.65,488.16L411.91,511.64L411.96,511.48L412.04,502.18L412.22,516.64L412.44,510.74L412.48,516.08L412.61,517.05L412.7,502.06L413.09,502.21L413.13,516.37L413.92,495.85L413.96,508.02L414.01,514.59L414.09,517.03L414.4,499.33L414.66,500.85L414.71,516.27L414.88,501.35L415.1,516.82L415.23,510.22L415.27,515.81L415.36,514.75L415.4,474.82L416.06,517.63L416.19,511.2L416.23,514.39L416.36,518.01L416.84,505.86L416.98,515.97L417.02,515.45L417.19,501.01L417.32,516.72L417.37,513.96L417.41,517.31L417.67,518.01L417.76,500.4L418.15,507.55L418.2,516.12L418.24,517.15L418.55,506.61L418.59,514.01L418.63,497.05L419.03,517.99L419.29,490.29L419.46,517.33L419.51,515.44L419.9,517.96L419.94,469.49L420.12,512.2L420.16,518.12L420.25,489.08L420.6,496.59L420.64,513.07L420.9,517.52L420.99,492.21L421.03,517.61L421.43,494.02L421.78,500.54L421.82,511.82L422,516.95L422.3,501.84L422.52,509.22L422.56,502.04L423.09,517.48L423.13,496.06L423.35,512.91L423.39,505L423.44,497.78L423.92,516.35L424.09,508.86L424.13,510.57L424.31,517.74L424.57,504.84L424.83,507.35L424.88,517.38L425.23,491.33L425.31,511.42L425.36,517.57L425.84,495.97L425.88,510.68L425.92,513.63L425.97,516.8L426.27,488.59L426.49,511.34L426.53,499.26L426.97,518.03L427.28,512.42L427.32,509.07L427.84,517.14L427.93,499.7L428.02,514.41L428.06,511.33L428.28,517.71L428.63,503.27L428.76,511.87L428.8,515.1L429.11,497.93L429.37,517.69L429.5,515.19L429.55,517.67L430.2,494.69L430.29,509.76L430.33,514.37L430.42,516.26L430.46,508.65L430.51,515.47L430.55,508.43L430.64,485.75L430.68,507.74L430.77,496.32L430.81,506.19L430.86,515.16L430.9,515.63L430.99,510.54L431.03,507.85L431.12,516.58L431.38,491.86L431.77,507.43L431.82,498.91L432.34,517.53L432.43,497.38L432.56,515.77L432.6,502.38L433.04,500.75L433.21,517.53L433.47,514.83L433.52,515.93L433.69,502.77L433.74,517.82L434.26,515.1L434.3,511.78L434.35,511.59L434.39,515.66L434.7,498.97L434.87,517.44L435.09,511.39L435.13,517.82L435.53,518.46L435.79,507.6L435.83,509.6L435.88,516.82L435.92,517.61L435.96,498.71L436.53,518.15L436.79,515.43L436.84,517.15L436.92,517.77L437.45,504.97L437.49,515.99L437.67,518.26L437.93,489.67L438.23,511.49L438.28,508.43L438.41,515.42L438.49,494.23L438.84,511.67L438.89,487.65L439.45,518.27L439.67,515.92L439.72,506.01L440.07,504.34L440.37,518.18L440.55,515.17L440.59,516.75L440.63,518.14L440.68,504.01L441.2,514.09L441.24,507.05L441.68,518.15L441.9,486.4L441.94,514.39L441.99,516.3L442.2,517.77L442.47,502.88L442.73,510.59L442.77,512.21L443.3,495.98L443.34,517L443.51,514.88L443.56,502.8L443.78,517.59L443.86,483.11L444.34,511.54L444.39,517.46L444.47,517.68L444.95,492.37L445.17,512.15L445.22,506.48L445.3,517.74L445.35,500.32L445.52,509.51L445.57,496.52L445.96,517.55L446.35,514.9L446.39,509.89L446.79,503L446.96,518.01L447.14,515.55L447.18,511.78L447.62,504.97L447.84,518.32L447.92,517.14L447.97,516.42L448.01,500.73L448.62,518.12L448.71,512.02L448.75,516.91L449.06,507.13L449.23,517.84L449.45,512.33L449.49,516.71L449.8,518.25L450.02,496.21L450.28,508.72L450.32,516.96L450.41,516.83L450.45,507.45L450.5,506L450.63,517.16L450.93,512.44L450.98,515.24L451.07,517.43L451.11,505.26L451.15,517.18L451.2,502.44L451.55,518L451.89,510.92L451.94,517.27L452.16,505.92L452.59,517.72L452.64,517.72L452.68,517.18L452.77,507.16L452.85,510.22L452.9,474.17L453.64,518.31L453.68,517.47L453.73,511.86L454.21,516.8L454.3,500.05L454.34,516.11L454.38,467.86L454.51,518.12L455.08,513.14L455.12,503.03L455.34,492.78L455.56,518.37L455.78,512.3L455.82,496.71L456.3,493.86L456.43,518.13L456.61,514.73L456.65,499.41L457.04,518.36L457.22,495.54L457.31,514.99L457.35,495.63L457.87,517.61L458.14,513.03L458.18,494.16L458.79,517.6L458.92,506.42L458.97,504.97L459.1,501.62L459.45,517.58L459.75,513.96L459.79,516.68L459.93,518.03L460.23,497.99L460.54,516.1L460.58,512.85L460.97,500.09L461.1,517.1L461.15,506.75L461.19,500L461.45,490.75L461.63,518.25L461.98,515.29L462.02,511.62L462.15,517.26L462.2,497.38L462.59,517.48L462.98,517.29L463.02,515.57L463.29,518.14L463.5,502.27L463.77,514.1L463.81,515.68L463.94,517.62L464.03,510.12L464.07,500.21L464.29,517.16L464.86,515.3L464.9,515.2L465.03,510.32L465.43,518L465.6,515.45L465.64,516.61L465.69,504.63L466.08,518.24L466.39,514.99L466.43,514.04L466.65,517.02L466.69,510.02L466.73,504.48L466.87,517.57L466.95,496.58L467.48,516.38L467.52,507.07L468.09,517.61L468.13,503.67L468.26,510.34L468.31,509.23L468.57,518.24L468.83,511.42L468.87,492.75L468.92,517.63L469.09,491.87L469.62,513.13L469.66,489.86L470.1,516.78L470.45,509.23L470.49,513.03L470.66,504.31L470.71,494.14L471.36,518.2L471.45,499.16L471.49,499.83L472.15,518.26L472.19,496.04L472.28,518.05L472.32,493.85L472.58,486.71L472.67,517.36L473.11,515.25L473.15,517.14L473.28,499.47L473.63,517.7L473.72,507.9L473.76,514.17L473.81,515.91L473.89,495.87L474.11,511.41L474.16,500.56L474.77,517.95L474.94,515.88L474.98,509.75L475.51,499.95L475.68,518.52L475.73,509.18L475.81,517.81L476.47,513.76L476.51,510.01L476.86,498.54L476.99,517.95L477.21,510.38L477.25,505.19L477.43,497.01L477.52,518.11L478,515.88L478.04,504.25L478.39,503.23L478.83,517.91L478.87,507.15L479.17,518.34L479.22,493.57L479.61,514.05L479.66,513.39L479.87,518.11L480,505.1L480.31,509.16L480.35,505.57L480.66,504.5L480.79,517.75L480.96,511.4L481.01,484.75L481.53,517.28L481.79,511.77L481.84,515.95L482.1,503.56L482.23,516.55L482.54,516.31L482.58,517.49L482.67,500.46L482.84,517.55L483.32,514.13L483.37,515.99L483.8,518L483.98,493L484.02,518.33L484.28,480.49L484.81,506.22L484.85,511.88L484.89,495.28L485.42,517.1L485.55,507.21L485.59,517.57L485.94,517.74L486.16,504.15L486.38,509.44L486.42,515.89L486.55,508.78L486.94,517.2L487.03,516.94L487.08,510.43L487.42,498.16L487.69,517.66L487.82,509.64L487.86,517.12L488.52,500.76L488.6,517.75L488.65,500.97L488.69,513.11L489.04,516.07L489.13,498.58L489.39,513.08L489.43,516.07L489.69,495.89L489.83,518.23L490.17,509.64L490.22,514.74L490.39,517.54L490.65,498.16L490.7,515.35L491,518.28L491.4,502.24L491.44,518.1L491.88,510.11L491.92,517.47L491.96,518.02L492.01,512.09L492.27,516.45L492.31,507.4L492.97,505.33L493.01,518.01L493.1,513.56L493.14,508.59L493.4,498.03L493.93,518.02L493.97,517.25L494.23,518.18L494.36,505.13L494.84,512.2L494.89,513.68L495.11,505.61L495.15,518.1L495.67,517.08L495.72,513.29L495.76,518.5L495.94,510.31L496.46,516.24L496.5,510.22L496.59,510.01L496.68,513.85L496.72,517L496.81,509.33L496.85,518.48L497.16,514.54L497.2,511.44L497.77,518.63L497.81,509.39L497.94,516.05L497.99,502.89L498.21,518.35L498.69,493.5L498.77,515.02L498.82,517.62L498.95,508.15L499.12,518.07L499.17,500.89L499.21,517.63L499.6,500.45L499.91,511.45L499.95,513.12L500.17,504.79L500.48,518.31L500.52,506.51L500.56,490.56L501.17,518.38L501.35,516L501.39,516.15L501.48,506.8L501.78,518.11L501.87,507.71L501.92,517.32L501.96,499.89L502.44,517.89L502.66,510.19L502.7,506.46L502.96,495.16L503.27,518.05L503.44,507.01L503.49,498.93L503.57,495.39L504.14,517.76L504.23,510.73L504.27,504.43L504.84,502.75L505.01,517.87L505.06,515.53L505.1,514.01L505.19,517.32L505.32,497.59L505.8,514.7L505.84,516.36L505.89,502.36L506.41,518.25L506.59,516.36L506.63,513.69L506.94,518.16L507.11,500.44L507.37,512.4L507.42,512.28L507.68,518.42L507.85,455.12L507.9,510.29L507.94,513.48L508.29,516.08L508.55,501.11L508.68,510.1L508.73,513.51L508.94,502.95L509.12,516.33L509.51,507.04L509.55,510.85L509.6,510.55L509.64,512.46L509.69,504.38L509.73,517.32L510.34,493.3L510.43,516.88L510.47,511.24L510.56,494.12L510.95,518.12L511.26,517.72L511.3,501.54L512.09,518.43L512.13,513.49L512.3,517.76L512.65,501.38L512.7,495.69L512.78,518.4L513.48,518.21L513.53,512.12L513.57,512.34L513.61,511.83L513.66,517.65L513.74,507.9L514.22,516.97L514.27,517.31L514.79,518.01L515.01,477.63L515.05,516.15L515.1,517.1L515.14,512.64L515.18,491.84L515.4,518.42L515.93,515.55L515.97,501.89L516.28,487.69L516.32,518.3L516.58,511.97L516.63,490.07L516.89,516.8L517.41,512.32L517.45,511.8L517.67,516.29L517.72,506.03L517.8,512.85L517.85,485.52L518.55,517.47L518.59,514.51L518.63,502.57L518.94,518.35L519.11,486.02L519.46,516.33L519.51,508.21L519.55,518.25L520.2,498.8L520.29,515.77L520.34,518.17L520.47,506.87L520.86,515.95L520.9,516.28L521.03,517.38L521.38,498.08L521.6,514.65L521.65,516.64L521.73,510.95L521.78,517.99L522.61,498.94L522.65,508.42L523.22,518.01L523.3,494.26L523.39,516.31L523.43,512.45L523.52,506.85L523.57,518.54L524.05,513.43L524.09,497.75L524.13,517.68L524.83,515.96L524.88,514.06L524.92,517.42L525.4,498.74L525.44,490.11L525.75,517.74L526.23,516.88L526.27,507.15L526.36,507.02L526.88,518.42L527.01,514.37L527.06,509.07L527.14,498.41L527.19,506.79L527.23,518.3L527.45,518.51L527.58,501.36L527.89,513.19L527.93,515.1L528.28,517.03L528.67,493.63L528.72,514.59L529.02,509.08L529.28,518.44L529.37,517.18L529.41,514.32L529.5,517.89L529.59,513.8L529.63,514.47L529.68,503.81L530.37,518.35L530.42,517.85L530.46,511.62L531.16,507.93L531.2,518.49L531.25,516.13L531.51,518.27L531.95,509.04L531.99,513.15L532.03,517.28L532.08,517.97L532.12,502.86L532.6,518.42L532.86,512.94L532.91,506.21L533.56,518.12L533.65,517.1L533.69,509.41L533.74,499.41L534,518.29L534.39,515.92L534.43,513.04L534.7,507.36L535.05,518.46L535.13,518.43L535.18,501.75L535.53,518.17L535.96,513.81L536.01,513.71L536.14,516.63L536.22,509.67L536.27,514.01L536.31,494.57L536.7,518.45L537.05,505.72L537.1,511.81L537.31,517.93L537.36,517.41L537.4,481.27L537.75,518.44L538.19,517.16L538.23,518.16L538.89,510.02L539.02,514.18L539.06,515.93L539.19,518.45L539.8,508.5L539.85,517.03L540.15,518.36L540.59,506.11L540.63,518.13L540.81,511.99L540.89,518.3L541.03,512.57L541.07,517.62L541.37,501.34L541.59,518.34L541.81,515.02L541.85,517.48L542.07,483.67L542.64,497.23L542.68,513.12L542.77,518.27L543.25,501.98L543.29,515.35L543.34,502.3L543.38,518.15L543.95,486.95L544.12,516.25L544.17,501.32L544.34,500.72L544.56,517.26L544.95,515.49L545,517.97L545.78,502.19L545.83,503.01L546.09,498.02L546.48,517.64L546.61,515.78L546.66,465.07L547.31,517.75L547.44,510.94L547.49,508.65L547.7,517.04L547.75,507.26L548.14,501.26L548.53,518.21L548.58,515.96L549.14,517.25L549.27,497.48L549.32,513.95L549.36,517.3L549.41,517.78L549.45,513.03L549.67,514.63L549.71,511.76L549.97,507.05L550.23,518.34L550.5,515.98L550.54,516.45L551.06,518.68L551.15,511.93L551.2,504.16L551.41,518.12L551.81,497.98L551.94,515.13L551.98,512.8L552.64,502.26L552.68,518.43L552.72,512.14L552.77,515.19L553.07,518.52L553.46,497.87L553.51,516.15L553.55,510.03L553.64,503.4L554.16,516.31L554.21,509.64L554.77,518.15L554.86,507.29L554.99,517.97L555.04,515.64L555.08,495.19L555.47,517.8L555.78,516.79L555.82,517.83L556.21,518.41L556.3,512.03L556.35,517.01L556.39,518.28L556.74,500.03L557.22,505.79L557.26,511.97L557.48,518.4L557.74,504.09L558.05,516.33L558.09,515.39L558.18,517.32L558.31,506.07L558.4,516.89L558.44,490.54L558.7,516.8L559.18,510.76L559.23,511.81L559.4,503.59L559.88,518.22L559.97,516.13L560.01,513.09L560.1,518.3L560.23,508.22L560.49,516.95L560.54,486.38L560.75,518.45L561.32,511.33L561.37,514.68L561.67,517.24L562.02,495.47L562.06,510.67L562.11,516.07L562.33,517.85L562.41,509.94L562.46,516.23L562.5,498.3L562.72,517.8L562.81,486.07L563.24,511.04L563.29,509.25L563.37,498.1L563.42,517.81L564.03,516.57L564.07,509.01L564.33,518.02L564.86,515.93L564.9,509.13L564.94,510.23L564.99,488.93L565.56,518.37L565.73,518.15L565.77,506.8L565.9,518.22L566.3,497.61L566.38,502.39L566.43,512.28L566.6,506.59L566.95,517.38L567.13,514.74L567.17,514.57L567.3,501.99L567.56,517.98L567.74,517.33L567.78,517.63L567.87,501.78L568.44,513.23L568.48,516.76L568.74,511.03L568.79,518.34L569.05,516.84L569.09,511.65L569.48,518.41L569.57,508.15L569.88,518.29L569.92,515.41L570.09,518.14L570.18,503.27L570.31,515.54L570.36,500.76L570.97,518.45L571.19,517.53L571.23,516.99L571.58,504.51L571.75,518.25L571.97,516.68L572.02,517.11L572.54,501.1L572.58,517.34L572.8,513L572.84,515.94L573.24,518.25L573.5,495.54L573.59,515.5L573.63,512.81L574.11,518.19L574.2,504.78L574.33,508.82L574.37,517.45L574.42,517.94L574.5,517.7L574.55,489.16L574.72,518.13L575.33,515.26L575.38,504.89L575.68,504.81L575.99,518.19L576.12,516.32L576.16,513.38L576.47,518.48L576.51,510.97L576.95,517.91L576.99,513.63L577.38,518L577.47,505.92L577.73,514.32L577.78,517.41L577.91,518.58L578.39,501.52L578.52,517.13L578.56,516.83L578.87,504.43L579.09,518.13L579.22,512.6L579.26,517.16L579.48,518.08L579.57,496.67L579.61,516.15L579.65,516.36L579.7,517.38L579.74,510.89L579.79,502.09L580.05,518.01L580.57,515.7L580.61,512.67L581.14,495.46L581.27,517.96L581.31,506.57L581.36,513.32L581.92,518.09L581.97,509.41L582.05,511.18L582.1,516.11L582.8,517.32L582.88,498.89L582.93,517.33L583.06,495.91L583.15,514.46L583.19,518L583.45,506.31L583.84,518.44L583.93,516.98L583.98,517.87L584.06,492.89L584.11,518.29L584.54,515.2L584.59,516.64L584.72,518.36L584.98,489.24L585.37,509.88L585.42,517.53L585.72,504.09L586.03,518.47L586.16,510.56L586.2,515.49L586.38,518.53L586.46,495.26L586.73,513.19L586.77,517.59L587.16,518.54L587.34,500.98L587.47,516.84L587.51,516.61L587.95,518.55L588.21,506.24L588.25,516.98L588.3,515.21L588.78,512.73L588.86,517.66L588.91,515.1L588.95,504.57L589.08,494.57L589.26,518.15L589.69,515.26L589.74,514.86L590.04,516.83L590.09,501.15L590.13,515.62L590.44,518.38L590.74,501.06L590.87,507.11L590.92,517.61L591.05,488.1L591.18,518.41L591.66,508.42L591.7,517.97L591.79,481.97L592.05,518.14L592.36,511.64L592.4,516.51L592.53,502.04L593.05,517.67L593.1,517.5L593.14,516.85L593.45,517.65L593.75,505.17L593.88,509.56L593.93,514.07L594.1,494.98L594.41,517.71L594.58,517.66L594.63,504.77L594.93,518.46L595.02,504.55L595.41,512.47L595.45,511.75L595.93,518.55L595.98,508.31L596.02,516.11L596.07,518.33L596.5,498.39L596.85,509.63L596.9,517.29L597.16,498.16L597.29,517.34L597.38,512.27L597.42,517.88L597.51,507.13L597.59,516.68L597.64,517.25L597.9,517.9L598.42,486.54L598.47,505.09L598.51,512.93L598.82,518.07L598.99,504.4L599.25,513.8L599.3,509.86L599.82,503.64L599.95,517.65L600.08,516.88L600.13,510.82L600.39,518.56L600.78,502.09L600.91,515.54L600.95,514.01L601.48,518.52L601.57,507.31L601.61,516.7L601.65,510.08L601.96,509.14L602.09,518.39L602.26,517.18L602.31,498.38L602.74,517.53L603.09,511.68L603.14,517.29L603.44,495.71L603.84,518.43L603.88,508.76L603.92,516.91L604.45,480.97L604.62,518.39L604.66,510.22L604.71,517.37L604.97,518.43L605.06,505.11L605.45,511.36L605.49,517.52L605.76,517.88L605.93,487.15L606.24,516.11L606.28,517.34L606.41,517.94L606.45,495.73L606.8,498.92L606.85,518L607.11,502.12L607.55,518.47L607.63,511.94L607.68,515.85L607.81,495.48L608.2,509.74L608.24,515.62L608.51,518.13L608.68,504.87L608.9,513.83L608.94,512.9L609.16,518.27L609.51,507.98L609.6,517.38L609.64,507.44L609.68,493.97L609.95,518.28L610.34,512.54L610.38,514.16L610.43,492.53L610.51,518.02L611.12,516.02L611.17,518.2L611.34,507.52L611.91,516.2L611.95,517.59L612,517.78L612.04,509.6L612.26,518.42L612.61,500.41L612.83,518.14L612.87,515.28L613.05,518.39L613.13,503.37L613.18,485.62L613.7,482.89L613.74,517.26L613.96,516.98L614.01,516.74L614.05,516.91L614.09,515.89L614.14,510.31L614.18,509.03L614.4,515.88L614.44,511.62L614.49,488.63L615.1,518.1L615.27,512.96L615.31,515.32L615.75,507.39L615.84,518.31L615.88,507.15L616.1,518.27L616.62,516.06L616.67,512.96L616.71,507.42L617.37,518.45L617.41,516.72L617.58,486.56L617.63,517.37L617.72,518.41L617.8,516.74L617.85,504.09L617.93,496.55L618.41,517.91L618.59,513.74L618.63,505.81L619.33,500.47L619.37,518.16L619.42,507.15L619.46,489.69L619.81,517.55L620.12,511.31L620.16,517.55L620.2,517.75L620.25,503.2L620.33,484.51L620.42,518.36L621.03,517.68L621.08,502.02L621.43,517.91L621.86,517.69L621.91,515.9L621.95,517.96L622.17,506.93L622.39,515.43L622.43,486.82L623.08,517.86L623.22,515.71L623.26,506.91L623.48,518.25L623.7,476.7L624,517.51L624.04,511.87L624.52,517.99L624.79,498.11L624.83,511.58L625.01,518.37L625.14,503.12L625.53,514.97L625.57,515.81L625.92,517.66L626.23,495.03L626.31,514L626.36,517.9L626.62,502.07L626.88,518.01L627.1,515.12L627.14,515.61L627.58,501.9L627.75,518.05L627.89,512.91L627.93,515.97L628.28,518.01L628.5,490.73L628.67,512.84L628.72,512.19L629.06,509.88L629.28,517.81L629.41,517.24L629.46,508.81L629.89,503.43L629.98,518.02L630.16,513.13L630.2,501.63L630.46,518L630.94,513.76L630.98,505.11L631.07,518.27L631.51,501.27L631.81,517.2L631.86,512.87L632.25,518.15L632.43,508.94L632.6,514.87L632.64,512.59L632.77,497.71L633.17,518.29L633.43,516.06L633.47,516.88L633.69,518.46L634.13,508.49L634.21,516.82L634.26,514.45L634.39,517.4L634.56,513.24L634.61,503.71L635.04,489.04L635.35,518.57L635.39,514.9L635.44,517.3L635.61,518.39L635.7,514.83L635.83,516.92L635.87,503.48L636.4,518.66L636.57,516.71L636.62,497.2L636.83,518.63L637.4,517.85L637.44,516.62L637.71,518.07L638.23,497.77L638.27,518.06L638.93,496.99L639.02,514.36L639.06,515.96L639.58,507.3L639.63,518.24L639.8,512.17L639.85,517.16L639.93,514.32L639.98,505.11L640.06,501.98L640.33,518.4L640.76,514.69L640.81,517.64L641.16,501.8L641.42,518.42L641.55,515.63L641.59,513.19L641.64,518.14L641.98,502L642.33,515.85L642.38,512.49L642.51,495.75L642.77,518.46L643.12,516.85L643.16,513.79L643.56,504.87L643.82,518.33L643.95,517.41L643.99,511.22L644.3,501.52L644.6,518.21L644.69,515.62L644.73,508.89L644.78,498.05L645.39,517.67L645.43,517.28L645.48,516.96L645.87,508.61L645.91,518.41L646,517.73" style="vector-effect: non-scaling-stroke; fill: none; stroke: rgb(31, 119, 180); stroke-opacity: 1; stroke-width: 2px; opacity: 1;"/></g><g class="points"/><g class="text"/></g></g></g><g class="overplot"/><path class="xlines-above crisp" d="M0,0" style="fill: none;"/><path class="ylines-above crisp" d="M0,0" style="fill: none;"/><g class="overlines-above"/><g class="xaxislayer-above"><g class="xtick"><text text-anchor="middle" x="0" y="619" transform="translate(60.04,0)" style="font-family: 'Open Sans', verdana, arial, sans-serif; font-size: 12px; fill: rgb(68, 68, 68); fill-opacity: 1; white-space: pre; opacity: 1;">0</text></g><g class="xtick"><text text-anchor="middle" x="0" y="619" style="font-family: 'Open Sans', verdana, arial, sans-serif; font-size: 12px; fill: rgb(68, 68, 68); fill-opacity: 1; white-space: pre; opacity: 1;" transform="translate(147.34,0)">2k</text></g><g class="xtick"><text text-anchor="middle" x="0" y="619" style="font-family: 'Open Sans', verdana, arial, sans-serif; font-size: 12px; fill: rgb(68, 68, 68); fill-opacity: 1; white-space: pre; opacity: 1;" transform="translate(234.64,0)">4k</text></g><g class="xtick"><text text-anchor="middle" x="0" y="619" style="font-family: 'Open Sans', verdana, arial, sans-serif; font-size: 12px; fill: rgb(68, 68, 68); fill-opacity: 1; white-space: pre; opacity: 1;" transform="translate(321.94,0)">6k</text></g><g class="xtick"><text text-anchor="middle" x="0" y="619" style="font-family: 'Open Sans', verdana, arial, sans-serif; font-size: 12px; fill: rgb(68, 68, 68); fill-opacity: 1; white-space: pre; opacity: 1;" transform="translate(409.23,0)">8k</text></g><g class="xtick"><text text-anchor="middle" x="0" y="619" style="font-family: 'Open Sans', verdana, arial, sans-serif; font-size: 12px; fill: rgb(68, 68, 68); fill-opacity: 1; white-space: pre; opacity: 1;" transform="translate(496.53,0)">10k</text></g><g class="xtick"><text text-anchor="middle" x="0" y="619" style="font-family: 'Open Sans', verdana, arial, sans-serif; font-size: 12px; fill: rgb(68, 68, 68); fill-opacity: 1; white-space: pre; opacity: 1;" transform="translate(583.83,0)">12k</text></g><g class="xtick"><text text-anchor="middle" x="0" y="619" style="font-family: 'Open Sans', verdana, arial, sans-serif; font-size: 12px; fill: rgb(68, 68, 68); fill-opacity: 1; white-space: pre; opacity: 1;" transform="translate(671.12,0)">14k</text></g></g><g class="yaxislayer-above"><g class="ytick"><text text-anchor="end" x="59" y="4.199999999999999" transform="translate(0,578.7)" style="font-family: 'Open Sans', verdana, arial, sans-serif; font-size: 12px; fill: rgb(68, 68, 68); fill-opacity: 1; white-space: pre; opacity: 1;">0</text></g><g class="ytick"><text text-anchor="end" x="59" y="4.199999999999999" style="font-family: 'Open Sans', verdana, arial, sans-serif; font-size: 12px; fill: rgb(68, 68, 68); fill-opacity: 1; white-space: pre; opacity: 1;" transform="translate(0,518.95)">0.5</text></g><g class="ytick"><text text-anchor="end" x="59" y="4.199999999999999" style="font-family: 'Open Sans', verdana, arial, sans-serif; font-size: 12px; fill: rgb(68, 68, 68); fill-opacity: 1; white-space: pre; opacity: 1;" transform="translate(0,459.21)">1</text></g><g class="ytick"><text text-anchor="end" x="59" y="4.199999999999999" style="font-family: 'Open Sans', verdana, arial, sans-serif; font-size: 12px; fill: rgb(68, 68, 68); fill-opacity: 1; white-space: pre; opacity: 1;" transform="translate(0,399.46)">1.5</text></g><g class="ytick"><text text-anchor="end" x="59" y="4.199999999999999" style="font-family: 'Open Sans', verdana, arial, sans-serif; font-size: 12px; fill: rgb(68, 68, 68); fill-opacity: 1; white-space: pre; opacity: 1;" transform="translate(0,339.72)">2</text></g><g class="ytick"><text text-anchor="end" x="59" y="4.199999999999999" style="font-family: 'Open Sans', verdana, arial, sans-serif; font-size: 12px; fill: rgb(68, 68, 68); fill-opacity: 1; white-space: pre; opacity: 1;" transform="translate(0,279.97)">2.5</text></g><g class="ytick"><text text-anchor="end" x="59" y="4.199999999999999" style="font-family: 'Open Sans', verdana, arial, sans-serif; font-size: 12px; fill: rgb(68, 68, 68); fill-opacity: 1; white-space: pre; opacity: 1;" transform="translate(0,220.23)">3</text></g><g class="ytick"><text text-anchor="end" x="59" y="4.199999999999999" style="font-family: 'Open Sans', verdana, arial, sans-serif; font-size: 12px; fill: rgb(68, 68, 68); fill-opacity: 1; white-space: pre; opacity: 1;" transform="translate(0,160.48000000000002)">3.5</text></g><g class="ytick"><text text-anchor="end" x="59" y="4.199999999999999" style="font-family: 'Open Sans', verdana, arial, sans-serif; font-size: 12px; fill: rgb(68, 68, 68); fill-opacity: 1; white-space: pre; opacity: 1;" transform="translate(0,100.72999999999999)">4</text></g></g><g class="overaxes-above"/></g></g><g class="polarlayer"/><g class="smithlayer"/><g class="ternarylayer"/><g class="geolayer"/><g class="funnelarealayer"/><g class="pielayer"/><g class="iciclelayer"/><g class="treemaplayer"/><g class="sunburstlayer"/><g class="glimages"/><defs id="topdefs-0c46af"><g class="clips"/></defs><g class="layer-above"><g class="imagelayer"/><g class="shapelayer"/></g><g class="infolayer"><g class="g-gtitle"><text class="gtitle" x="383" y="30" text-anchor="middle" dy="0em" style="font-family: 'Open Sans', verdana, arial, sans-serif; font-size: 17px; fill: rgb(68, 68, 68); opacity: 1; font-weight: normal; white-space: pre;">loss</text></g><g class="g-xtitle"/><g class="g-ytitle"/></g></svg>