<svg class="main-svg" xmlns="http://www.w3.org/2000/svg" xmlns:xlink="http://www.w3.org/1999/xlink" width="766" height="666" style="" viewBox="0 0 766 666"><rect x="0" y="0" width="766" height="666" style="fill: rgb(255, 255, 255); fill-opacity: 1;"/><defs id="defs-4ca6eb"><g class="clips"><clipPath id="clip4ca6ebxyplot" class="plotclip"><rect width="646" height="546"/></clipPath><clipPath class="axesclip" id="clip4ca6ebx"><rect x="60" y="0" width="646" height="666"/></clipPath><clipPath class="axesclip" id="clip4ca6eby"><rect x="0" y="60" width="766" height="546"/></clipPath><clipPath class="axesclip" id="clip4ca6ebxy"><rect x="60" y="60" width="646" height="546"/></clipPath></g><g class="gradients"/><g class="patterns"/></defs><g class="bglayer"/><g class="layer-below"><g class="imagelayer"/><g class="shapelayer"/></g><g class="cartesianlayer"><g class="subplot xy"><g class="layer-subplot"><g class="shapelayer"/><g class="imagelayer"/></g><g class="gridlayer"><g class="x"><path class="xgrid crisp" transform="translate(147.34,0)" d="M0,60v546" style="stroke: rgb(238, 238, 238); stroke-opacity: 1; stroke-width: 1px;"/><path class="xgrid crisp" transform="translate(234.64,0)" d="M0,60v546" style="stroke: rgb(238, 238, 238); stroke-opacity: 1; stroke-width: 1px;"/><path class="xgrid crisp" transform="translate(321.94,0)" d="M0,60v546" style="stroke: rgb(238, 238, 238); stroke-opacity: 1; stroke-width: 1px;"/><path class="xgrid crisp" transform="translate(409.23,0)" d="M0,60v546" style="stroke: rgb(238, 238, 238); stroke-opacity: 1; stroke-width: 1px;"/><path class="xgrid crisp" transform="translate(496.53,0)" d="M0,60v546" style="stroke: rgb(238, 238, 238); stroke-opacity: 1; stroke-width: 1px;"/><path class="xgrid crisp" transform="translate(583.83,0)" d="M0,60v546" style="stroke: rgb(238, 238, 238); stroke-opacity: 1; stroke-width: 1px;"/><path class="xgrid crisp" transform="translate(671.12,0)" d="M0,60v546" style="stroke: rgb(238, 238, 238); stroke-opacity: 1; stroke-width: 1px;"/></g><g class="y"><path class="ygrid crisp" transform="translate(0,520.5699999999999)" d="M60,0h646" style="stroke: rgb(238, 238, 238); stroke-opacity: 1; stroke-width: 1px;"/><path class="ygrid crisp" transform="translate(0,462.44)" d="M60,0h646" style="stroke: rgb(238, 238, 238); stroke-opacity: 1; stroke-width: 1px;"/><path class="ygrid crisp" transform="translate(0,404.31)" d="M60,0h646" style="stroke: rgb(238, 238, 238); stroke-opacity: 1; stroke-width: 1px;"/><path class="ygrid crisp" transform="translate(0,346.18)" d="M60,0h646" style="stroke: rgb(238, 238, 238); stroke-opacity: 1; stroke-width: 1px;"/><path class="ygrid crisp" transform="translate(0,288.03999999999996)" d="M60,0h646" style="stroke: rgb(238, 238, 238); stroke-opacity: 1; stroke-width: 1px;"/><path class="ygrid crisp" transform="translate(0,229.91)" d="M60,0h646" style="stroke: rgb(238, 238, 238); stroke-opacity: 1; stroke-width: 1px;"/><path class="ygrid crisp" transform="translate(0,171.78)" d="M60,0h646" style="stroke: rgb(238, 238, 238); stroke-opacity: 1; stroke-width: 1px;"/><path class="ygrid crisp" transform="translate(0,113.65)" d="M60,0h646" style="stroke: rgb(238, 238, 238); stroke-opacity: 1; stroke-width: 1px;"/></g></g><g class="zerolinelayer"><path class="xzl zl crisp" transform="translate(60.04,0)" d="M0,60v546" style="stroke: rgb(68, 68, 68); stroke-opacity: 1; stroke-width: 1px;"/><path class="yzl zl crisp" transform="translate(0,578.7)" d="M60,0h646" style="stroke: rgb(68, 68, 68); stroke-opacity: 1; stroke-width: 1px;"/></g><path class="xlines-below"/><path class="ylines-below"/><g class="overlines-below"/><g class="xaxislayer-below"/><g class="yaxislayer-below"/><g class="overaxes-below"/><g class="plot" transform="translate(60,60)" clip-path="url(#clip4ca6ebxyplot)"><g class="scatterlayer mlayer"><g class="trace scatter tracede3998" style="stroke-miterlimit: 2; opacity: 1;"><g class="fills"/><g class="errorbars"/><g class="lines"><path class="js-line" d="M0,518.7L0.04,27.3L0.74,194.68L0.79,184.94L0.87,179.08L1.4,298.78L1.57,251.14L1.62,222.68L1.66,320.24L2.4,299.55L2.44,214.93L3.23,375.61L3.27,339.98L3.32,307.15L3.4,324.44L3.58,225.84L4.06,308.64L4.1,303.67L4.5,368.16L4.58,261.02L4.8,273.46L4.85,331.43L5.15,267.89L5.41,364.91L5.63,285.79L5.67,258.94L5.72,377.88L6.07,241.25L6.42,366.88L6.46,314.73L6.68,366.04L6.77,264.85L7.16,337.59L7.2,361.09L7.33,399.31L7.77,300.33L7.94,348.95L7.99,390L8.29,260.99L8.34,404.49L8.77,281.49L8.82,337.05L9.04,365.49L9.17,300.75L9.21,334.37L9.25,275.98L9.3,268.13L9.38,357.66L9.43,335.44L9.47,401.98L9.95,285.27L10.21,293.29L10.26,370.47L10.3,369.63L10.34,315.87L10.39,396.79L10.96,250.82L11.09,349.27L11.13,359.89L11.31,281.13L11.61,381.27L11.87,366.63L11.92,356.13L12.09,392.06L12.27,310.69L12.35,337.92L12.4,244.53L12.83,408.16L13.14,349.71L13.18,275.25L13.97,408.16L14.01,373.61L14.05,375.58L14.1,329.76L14.14,327.24L14.19,343.38L14.23,338.79L14.27,384.81L14.45,321.95L14.84,388.99L14.97,365.87L15.02,385.55L15.23,313.25L15.5,408.75L15.76,345.56L15.8,343.71L15.98,408.51L16.32,304.67L16.46,321.01L16.5,291.35L16.59,420.77L17.2,408.6L17.24,324.45L17.5,299.79L17.98,417.08L18.03,383.56L18.07,311.91L18.25,425.57L18.38,278.59L18.81,325.48L18.86,338.82L18.99,320.56L19.03,414.71L19.34,409.49L19.38,305.46L19.6,426.31L20.12,349.34L20.17,320.14L20.43,434.78L20.56,289.43L20.91,322.52L20.95,318.57L21.21,422.45L21.52,300.57L21.74,395.19L21.78,379.07L21.82,345.82L22.26,417.97L22.48,351.67L22.52,392.38L22.74,326.84L22.83,421.23L22.92,349.6L22.96,439.51L23.57,327.14L23.74,359.2L23.79,419.18L23.88,426.9L24.31,298.25L24.57,363.59L24.62,354.72L24.66,428.04L24.92,338.98L25.36,372.82L25.4,392.88L25.58,333.03L25.71,443.17L26.1,346.07L26.15,396.83L26.36,359.12L26.49,440.88L26.71,403.1L26.76,342.4L27.46,431.9L27.54,425.44L27.59,363.01L27.76,334.54L28.2,446.77L28.33,367.85L28.37,375.12L28.59,333.69L28.68,449.79L29.11,386.86L29.16,378.95L29.46,279.43L29.51,428.19L29.81,364.05L29.86,339.77L29.99,326.36L30.42,439.06L30.64,372.3L30.69,407.2L30.99,351.24L31.12,420.53L31.17,430.57L31.51,435.69L31.6,325.55L31.73,367.77L31.78,426.09L32.3,223.94L32.34,440.11L32.61,367.58L32.65,459.17L33.48,295.52L33.52,440.52L33.61,445.88L34,324.75L34.26,402.71L34.31,415.8L34.48,431.43L34.74,374.89L34.92,408.15L34.96,387.2L35.18,313.03L35.44,441.45L35.75,423.14L35.79,390.1L35.97,427.44L36.1,326.31L36.45,414.43L36.49,360.46L36.62,349.42L36.66,426.28L37.06,392.01L37.1,410.66L37.45,437.29L37.54,319.11L37.84,370.61L37.89,400.76L38.11,349.91L38.41,441.78L38.63,363.61L38.67,374.96L39.11,340.86L39.24,445.74L39.46,403.31L39.5,408.34L39.59,332.82L39.98,477.9L40.16,398.77L40.2,380.9L40.59,371.2L40.99,462.16L41.03,416.02L41.07,435.2L41.34,363.15L41.68,428.6L41.73,344.98L41.9,451.52L42.08,302.16L42.43,338.07L42.47,370.88L42.73,446.58L42.95,301.81L43.26,431.07L43.3,411.5L43.43,445.4L43.61,347.81L43.69,383.14L43.74,443.77L43.82,332.3L43.87,447.19L44.48,393.51L44.52,429.97L44.87,336.49L44.91,447.85L45.26,407.53L45.31,435.46L45.7,467.74L45.83,383.44L46.05,438.18L46.09,431.99L46.27,378.64L46.66,467.52L46.79,451.2L46.84,399.87L46.97,452.62L47.45,380.05L47.58,447.67L47.62,410.85L47.66,411.01L47.71,439.95L47.8,383.49L47.88,448.99L48.45,403.52L48.49,419.02L48.8,344.72L48.84,461.86L49.15,443.78L49.19,384.83L49.41,433.59L49.76,362.35L49.98,427.73L50.02,413.16L50.07,458.89L50.41,372.36L50.76,407.94L50.81,404.07L51.03,385.07L51.29,440.98L51.46,423.57L51.51,437.02L51.55,367.91L51.77,461.98L52.25,441.79L52.29,425.3L52.68,370.05L52.77,476.03L53.03,432.36L53.08,458.65L53.25,469.43L53.43,388.7L53.82,441.4L53.86,450.93L53.91,453.94L53.95,377.88L54.34,351.43L54.56,468.01L54.69,374.74L54.74,363.46L55.13,466.63L55.52,417.69L55.56,391.25L56.13,479L56.26,437.39L56.31,429.2L56.48,447.67L56.79,374.62L56.96,415.86L57.01,359.92L57.7,440.06L57.79,391.16L57.83,427.43L58.14,340.72L58.53,465.49L58.58,394.14L58.88,379.54L59.06,470.82L59.36,448.38L59.41,446.8L59.8,395.01L59.93,480.7L60.15,419.33L60.19,448.61L60.37,411.71L60.5,477.25L60.76,412.09L60.8,479.56L61.06,360.05L61.63,420.19L61.68,441.09L61.85,459.14L62.11,358.45L62.37,450.18L62.42,410.09L62.46,340.58L63.07,466.08L63.12,454.84L63.16,433.4L63.2,370.73L63.47,475.79L63.9,406.61L63.95,394.39L64.03,469.8L64.56,361.62L64.6,463.76L64.73,464.14L65.3,369.17L65.34,458.13L65.39,445.88L65.6,420.81L65.82,476.27L66.13,467.68L66.17,394.37L66.91,377.66L66.96,494.03L67,444.68L67.35,494.38L67.57,369.59L67.74,467.19L67.79,371.87L68.14,478.64L68.48,475.54L68.53,347L68.96,472.45L69.31,471.1L69.36,466.54L69.49,391.1L70.1,458.48L70.14,437.37L70.36,383.09L70.41,469.11L70.75,428.54L70.8,473.55L71.15,388.51L71.58,427.84L71.63,466.2L71.93,482.83L72.37,394.03L72.41,481.63L72.85,407.86L72.94,488.42L73.2,438.68L73.24,471.38L73.59,488.24L73.98,406.69L74.03,444.51L74.07,456.85L74.25,468.29L74.38,397.98L74.81,403.47L74.86,479.97L74.9,365.12L75.6,437.85L75.64,399.72L75.73,476.3L76.39,459.76L76.43,434.71L76.47,404.92L76.6,482.7L77.13,449.32L77.17,456.99L77.21,424.76L77.3,480.21L77.91,459.1L77.96,453.11L78.13,435.63L78.17,490.35L78.26,466.16L78.31,436.25L78.57,493.56L78.61,431.53L79.09,474.51L79.13,430.18L79.4,410.48L79.92,487.43L79.96,458.11L80.05,370.76L80.1,422.64L80.14,479.84L80.31,492.52L80.88,351.37L80.92,452.38L80.97,458.02L81.01,453.39L81.06,341.21L81.49,492.3L81.84,401.44L81.88,433.35L81.97,473.39L82.06,461.85L82.1,406.12L82.41,479.87L82.89,472.68L82.93,393.14L83.37,389L83.63,484.94L83.72,457.41L83.76,466.25L83.98,404.95L84.07,495.73L84.46,441.99L84.5,490.96L84.55,489.56L84.59,446.45L84.63,433.67L84.98,497.14L85.2,460.76L85.25,475.78L85.59,495.59L85.68,420.48L85.86,483.59L85.9,421.92L86.25,506.63L86.64,459.37L86.69,482.8L87.08,497.26L87.34,421.03L87.38,474.41L87.43,486.7L87.82,411.04L87.95,436.54L88,441.07L88.04,499.46L88.65,412.51L88.74,461.66L88.78,446.36L88.91,428.14L89.57,492.96L89.61,471.56L89.65,453.31L89.96,410.98L90.22,489.54L90.44,422.72L90.48,491.32L90.61,491.62L90.75,415.64L90.92,458.32L90.96,489.19L91.09,495.32L91.79,413.24L91.84,462.34L91.88,499.4L92.32,423.13L92.58,489.48L92.62,487.82L92.75,500.15L92.8,436.63L93.36,476.65L93.41,485.63L93.5,396.3L93.89,495.8L94.15,466.06L94.19,472.64L94.28,487.46L94.32,476.87L94.37,419.06L94.89,401.05L95.02,508.92L95.15,474.39L95.2,457.96L95.28,404.88L95.5,486.7L95.72,483.84L95.77,408.6L96.07,494.01L96.25,367.06L96.55,473.88L96.59,465.01L97.03,409.94L97.12,495.29L97.29,482.29L97.34,481.73L97.69,430.76L97.95,505.86L98.08,433.84L98.12,494.42L98.65,393.97L98.82,452.3L98.86,499.51L98.95,431.85L99.56,490.67L99.61,505.42L99.74,460.2L100.35,502.59L100.39,476.77L100.57,437.27L100.78,498.7L100.92,463.89L100.96,485.36L101.09,455L101.31,494.72L101.35,413.83L101.83,492.53L102.14,480.96L102.18,464.35L102.23,404.42L102.62,510.78L102.92,471.12L102.97,490.1L103.19,411.22L103.67,501.95L103.71,478.71L103.75,484.88L104.15,506.54L104.28,429.52L104.49,464.42L104.54,488.88L104.67,503.83L105.24,432.39L105.28,476.99L105.32,476.95L105.63,498.4L105.89,418.89L105.94,463.17L105.98,431.32L106.07,508.21L106.33,428.35L106.76,483.19L106.81,491.72L107.24,435.14L107.38,505.21L107.55,482.58L107.59,475.93L107.81,433.87L108.03,507.01L108.29,491.88L108.34,483.71L108.55,439.83L108.69,492.58L109.08,484.54L109.12,487.98L109.17,484.26L109.21,401.92L109.6,504.04L109.99,498.46L110.04,483.9L110.13,489.8L110.3,443.19L110.43,489.2L110.47,424.43L110.65,505.7L111.09,403.21L111.3,487.14L111.35,434.78L111.65,415.49L111.92,503.51L112.13,477.53L112.18,479.62L112.31,501.88L112.4,464.74L112.66,486.34L112.7,460.88L113.18,456.35L113.44,506.17L113.49,479.29L113.62,505.95L114.14,443.48L114.18,497.94L114.23,488.9L114.75,405.2L114.8,491.81L115.01,474.28L115.06,503.89L115.41,435.05L115.89,435.74L115.93,443.3L116.06,502.84L116.11,424.88L116.67,489.57L116.72,482.05L116.8,498.03L116.85,454.55L116.93,490.35L116.98,500.64L117.28,448.18L117.68,494.26L117.72,505.04L118.07,513.75L118.29,427.68L118.46,509.18L118.51,485.17L118.68,419.55L118.77,500.22L118.99,491.14L119.03,505L119.12,508.56L119.68,447.48L119.82,473.58L119.86,490.03L119.95,488.19L119.99,505.08L120.03,508.03L120.34,454.44L120.78,485.03L120.82,495.73L120.99,434.92L121.34,505.02L121.61,460.15L121.65,500.87L121.82,502.86L122.22,451.18L122.39,470.85L122.43,487.83L122.91,513.96L122.96,445.56L123.18,505.33L123.22,498.36L123.39,424.52L123.57,508.68L123.92,487.56L123.96,499.28L124.18,502.63L124.49,442.47L124.7,482.37L124.75,480.53L124.92,447.42L125.1,513.33L125.4,492.72L125.45,421.99L125.58,506.6L126.23,497.68L126.28,486.41L126.8,494.9L127.06,384.08L127.1,507.57L127.85,405.08L127.89,463.47L127.93,484.15L127.98,486.18L128.02,445.5L128.28,498.16L128.63,388.14L128.81,492.45L128.85,474.04L129.29,434.21L129.51,508.14L129.55,475.01L129.59,469.03L129.72,501.67L130.07,442.06L130.2,486.11L130.25,506.12L130.38,507.98L131.03,451.57L131.08,484.22L131.16,436.55L131.38,505.58L131.82,495.62L131.86,430.67L131.91,511.44L132.12,427.32L132.6,499.54L132.65,491.96L132.69,490.39L132.74,509.03L132.87,502.91L132.91,456.07L133.13,443.31L133.48,506.66L133.7,505.81L133.74,478.12L134,435.51L134.31,498.09L134.48,497.97L134.53,489.17L134.57,459.97L134.7,503.31L135.27,471.12L135.31,499.65L135.44,467.7L135.62,513.91L135.92,489.47L135.97,454.24L136.71,512.04L136.75,507.76L136.79,503.74L136.93,492.32L136.97,494.69L137.01,509.85L137.1,510.2L137.58,466.58L137.62,509.74L137.67,512.65L137.84,488.94L137.89,493.01L137.93,457.51L138.5,511.1L138.72,503.41L138.76,461.83L138.8,510.5L139.33,461.08L139.5,507.42L139.54,492.15L139.59,491.9L139.63,502.52L139.72,440.37L140.33,513.88L140.37,476.53L140.42,508.39L140.64,416.75L140.94,511.05L141.16,494.19L141.2,504.69L141.77,458.64L141.99,487.47L142.03,485.61L142.56,512.89L142.64,466.9L142.82,500.69L142.86,485.17L143.04,512.83L143.6,501.51L143.65,479.86L144.08,508.79L144.43,507.31L144.48,512.72L145.18,514.08L145.22,448.13L145.26,497.28L145.52,481.22L145.57,513.61L145.7,510.74L145.74,476.85L145.79,478.27L145.83,502.52L146,407.78L146.14,510.07L146.44,483.32L146.48,438.65L147.27,513.66L147.31,465.25L147.36,512.51L147.88,418.5L148.06,483.03L148.1,500.53L148.41,440.01L148.71,515L148.8,500.37L148.84,486.24L149.28,472.18L149.37,512.48L149.41,503.02L149.45,471.82L149.63,512.36L150.02,463.77L150.2,510.75L150.24,478.49L150.72,464.72L150.85,514.41L151.02,503.18L151.07,499.82L151.46,472.07L151.64,514.91L151.68,503.92L151.72,447.24L151.9,512.52L152.51,495.76L152.55,489.4L152.86,483.13L153.03,512.78L153.29,510.48L153.34,461.09L154.04,511.68L154.08,497.63L154.12,477.75L154.3,509.12L154.73,506.45L154.78,472.89L155.39,516.12L155.48,458.6L155.56,498.43L155.61,500.97L156.13,513.56L156.22,472.07L156.26,490.5L156.31,506.95L156.74,514L156.87,468.05L157.05,495.55L157.09,495.09L157.18,511.49L157.22,495.41L157.27,452.81L157.79,516.46L157.96,445.96L158.05,496.24L158.1,497.13L158.14,469.16L158.75,514.84L158.84,498.67L158.88,497.53L158.97,465.64L159.19,507.81L159.27,466.01L159.32,510.98L160.1,468.07L160.15,514.49L160.32,515.64L160.76,428.46L160.89,506.12L160.93,512.19L161.11,418.09L161.5,499.82L161.54,505.14L161.85,513.09L161.89,438.16L162.02,504.21L162.07,513.61L162.2,514.44L162.29,463.06L162.81,499.72L162.85,509.78L163.07,440.09L163.29,516.13L163.51,477.08L163.55,508.82L163.73,510.47L163.81,459.45L163.99,467.32L164.03,512.89L164.21,449.93L164.73,505.62L164.77,505.45L164.86,443.39L165.47,484.22L165.52,506.8L166.08,465.27L166.21,508.65L166.26,508.83L167,465.17L167.04,511.05L167.17,511.24L167.35,442.21L167.79,496.21L167.83,485.36L168,515.28L168.09,447.52L168.53,489.97L168.57,494.12L168.61,469.15L169.01,513.69L169.27,489.05L169.31,514.12L169.49,465.79L169.58,509.4L169.62,510.54L170.01,489.62L170.1,516.16L170.4,501.47L170.45,507.86L170.49,475.59L170.54,516.65L171.19,487.97L171.23,498.74L171.28,501.08L171.32,463.25L171.67,513.25L171.71,445.63L172.06,478.28L172.11,473.5L172.67,515.02L172.89,491.7L172.94,479.75L173.2,508.41L173.29,484.13L173.33,403.91L173.59,511.64L174.11,497.9L174.16,514.12L174.42,423.76L174.68,514.29L174.86,470.32L174.9,501.23L175.07,465.51L175.38,514.96L175.64,505.27L175.69,497.4L175.99,513.98L176.21,477.25L176.43,500.08L176.47,502.1L176.65,467.5L176.86,516.83L177.17,513.27L177.21,493.55L177.52,515.31L177.87,481.13L178,513.44L178.04,470.49L178.09,471.67L178.13,505.13L178.3,486.87L178.35,511.97L178.48,498.53L178.52,417.86L179,513.4L179.27,509.64L179.31,479.96L179.79,477.14L180.09,510.04L180.14,472.45L180.18,471.43L180.23,482.67L180.27,506.18L180.36,484.19L180.57,508.61L180.62,492.61L180.66,465.77L181.05,513.21L181.45,508.78L181.49,464.57L181.75,457.6L182.15,516.05L182.23,512.08L182.28,501.16L182.93,514.98L183.06,481.59L183.11,474.62L183.63,421.79L183.76,514.27L183.85,498.79L183.89,477.16L184.24,510.26L184.33,476.87L184.59,508.61L184.63,461.2L184.94,514.04L185.42,489.85L185.46,504.67L185.55,459.1L185.86,513.17L186.21,496.63L186.25,512.33L186.34,514.06L186.82,471.22L186.99,479.7L187.03,504.7L187.17,516.37L187.47,477.78L187.69,513.72L187.73,477.55L187.78,513.07L188.47,512.38L188.52,463.6L188.65,445.19L189.04,514.23L189.22,496.88L189.26,476.06L189.52,513.25L189.65,402.16L190,493.83L190.05,483.37L190.18,514.66L190.48,444.13L190.74,507.31L190.79,447.55L191.01,509.63L191.57,507.36L191.62,507.89L191.88,426.09L192.19,511.74L192.36,509.47L192.4,507.87L192.58,512.53L192.97,464.97L193.15,490.78L193.19,506.15L193.67,511.18L193.89,471.06L193.93,506.76L193.97,508.52L194.06,488.98L194.15,497.73L194.19,514.28L194.59,478.91L194.85,515.99L194.93,495.46L194.98,513.63L195.2,476.05L195.37,515.71L195.68,505.96L195.72,512.85L196.2,513.83L196.38,462.89L196.46,499.41L196.51,502.89L196.9,470.72L196.99,515.6L197.2,512.21L197.25,500.5L197.29,471.15L197.77,517.26L197.99,491.3L198.03,489.59L198.43,517.47L198.78,495.22L198.82,489.81L199.17,514.79L199.3,483.05L199.56,499.29L199.61,499.33L199.87,516.53L200.04,455.99L200.39,511.12L200.43,511.58L200.52,472.93L200.78,513.98L200.96,492.58L201,514.49L201.09,473.34L201.48,517.37L201.7,504.4L201.74,512.86L201.79,517.38L201.92,494.69L202.4,513.71L202.44,503.34L202.57,517.43L202.84,496.77L203.05,502.87L203.1,463.68L203.75,517.51L203.88,514.66L203.93,510.19L203.97,510.68L204.01,479.64L204.23,516.14L204.8,511.03L204.84,512.32L205.28,517.74L205.37,470.29L205.54,495.26L205.59,512.63L205.72,479.88L205.76,506.63L205.8,514.17L205.98,516.01L206.46,458.75L206.5,515.35L206.89,452.04L207.24,471.14L207.29,514.65L207.9,473.24L208.03,515.7L208.07,511.48L208.12,464.91L208.64,512.97L208.82,501.94L208.86,479.41L208.95,514.96L209.25,462.38L209.64,504L209.69,502.3L209.99,458.77L210.17,517.16L210.34,508.38L210.39,471.77L210.43,466.61L210.82,508.79L210.91,498.21L210.95,505.41L211,508.38L211.04,489.27L211.08,446.16L211.74,509.31L211.87,495.78L211.91,513.64L212.13,515.64L212.48,437.08L212.7,483.85L212.74,502.56L213.01,456.89L213.14,516.1L213.53,474.11L213.57,498.93L213.62,499.26L213.66,468.04L213.92,515.5L214.36,504.18L214.4,486.35L214.45,482.9L214.62,512.35L214.75,507.63L214.8,511.95L214.88,482.23L215.19,516.11L215.54,498.63L215.58,494.43L216.15,465.84L216.28,517.23L216.37,512.45L216.41,477.58L217.06,517.66L217.15,514.57L217.2,459.26L217.41,516.05L217.59,455.04L217.98,504.37L218.03,473.59L218.59,516.95L218.77,485.36L218.81,496.07L219.2,483.53L219.33,516.01L219.47,499.48L219.51,507.05L219.55,506.07L219.68,516.8L219.86,508.33L219.9,517.35L220.47,492.62L220.64,515.05L220.69,513.92L220.73,514.92L220.82,499.57L220.86,507.52L220.91,495.35L221.21,518.25L221.3,488.5L221.69,513.15L221.74,509.34L222,471.53L222.26,517.44L222.43,512.13L222.48,504.97L222.78,517.57L223.13,489.76L223.22,511.17L223.26,497.78L223.48,516.84L223.61,483.87L223.92,503.56L223.96,509.27L224.44,482.9L224.66,516.24L224.7,511.52L224.83,516.4L224.88,474.7L224.92,476.03L224.97,507.11L225.23,472.58L225.58,517.38L225.66,511.15L225.71,494.67L225.75,471.5L226.01,516.66L226.41,514.82L226.45,515.15L226.67,497.48L226.84,517.61L227.19,511.6L227.23,509.57L227.32,515.52L227.89,479.72L228.02,496.71L228.06,507.05L228.24,476.77L228.46,513L228.68,505.51L228.72,515.04L228.94,483.64L229.37,515.59L229.42,513.6L229.59,475.6L229.72,516.06L229.94,502.46L229.98,513.79L230.03,515.23L230.07,475.7L230.25,516.25L230.29,462.11L230.77,501.57L230.81,453.73L231.21,517.24L231.6,513.77L231.64,502.39L231.82,481.27L231.91,513.99L232.04,496.05L232.08,515.16L232.25,516.77L232.3,456.45L232.82,500.47L232.87,490.53L233.21,483.88L233.69,517.69L233.74,496.26L234,517L234.04,481.87L234.18,511.36L234.22,478.83L234.39,451.64L234.87,512.38L235,496.13L235.05,449.28L235.53,513.32L235.83,489.43L235.88,492.45L236.05,491.05L236.1,514.41L236.23,504.42L236.27,465.88L236.44,513.95L236.71,461.85L237.01,480.62L237.06,492.11L237.1,514.84L237.45,453.37L237.75,507.37L237.8,479.05L237.97,509.46L238.06,491.85L238.1,424.67L238.58,514.63L238.89,510.81L238.93,479.58L239.02,464.5L239.11,510.3L239.54,492.66L239.59,503.41L239.72,512.79L240.29,483.8L240.33,496.13L240.37,504.49L240.55,517.64L240.72,445.98L241.07,498.63L241.12,509.45L241.16,507.95L241.2,511.43L241.25,480.42L241.38,477.16L241.51,516.44L241.99,513.46L242.03,481.91L242.38,445.76L242.6,511.26L242.82,507.92L242.86,485.37L242.95,504.29L242.99,478.16L243.04,488.55L243.08,472.87L243.25,368.67L243.56,512.98L243.87,507.97L243.91,470.3L244.56,511.76L244.61,511.48L244.65,453.48L245.04,514.01L245.44,510.51L245.48,493.15L245.83,476.27L245.92,516.17L246.05,511.78L246.09,511.1L246.27,495.62L246.35,516.71L246.48,510.42L246.53,476.59L246.75,516.85L246.92,466.13L247.27,494.79L247.31,484.06L247.4,475.26L247.97,517.08L248.01,467.14L248.19,510.96L248.54,459.19L248.75,488.52L248.8,485.04L248.93,452.2L249.15,518.23L249.54,511.54L249.58,503.39L249.98,479.72L250.06,516.4L250.11,481.19L250.37,513.9L250.76,480.13L250.89,508.27L250.94,515.9L251.59,518.25L251.68,486.72L251.72,498.13L251.77,502.95L252.03,468.29L252.38,515.41L252.51,512.65L252.55,506.22L252.73,514.18L252.9,484.21L253.21,499.77L253.25,489.31L253.51,517.01L254.04,516.56L254.08,497.27L254.17,484.57L254.69,517.17L254.82,516.82L254.86,480.05L255.61,517.75L255.65,515.06L255.69,500.54L255.91,480.08L256.09,515.92L256.35,514.48L256.39,486.47L256.78,517.02L256.96,512.92L257,484.01L257.13,464.4L257.35,516.78L257.75,512.11L257.79,503.98L258.18,496.56L258.23,517.24L258.53,505.26L258.57,498.8L258.62,517.96L259.36,515.82L259.4,515.58L259.58,516.94L259.84,479.34L260.15,513.03L260.19,510.16L260.5,467.08L260.89,516.91L260.93,469.01L260.98,509.43L261.15,483.37L261.41,516.02L261.46,465.87L261.85,517.01L262.24,509.79L262.28,483.33L262.33,517.16L263.07,511.4L263.11,504.46L263.55,517.63L263.59,488.62L263.86,505.68L263.9,505.2L264.12,518.23L264.51,487.7L264.64,504.85L264.69,512.72L265.08,517.7L265.34,502.26L265.38,516.48L265.43,515.97L265.47,518.34L265.91,502.48L266.13,515.89L266.17,512.51L266.39,518.09L266.56,490.21L266.87,511.51L266.91,503.26L267.26,518.03L267.39,492.75L267.7,514.66L267.74,515.66L268,478.29L268.44,518.16L268.48,502.11L268.53,509.22L268.74,463.97L268.96,516.8L269.14,516.29L269.18,494.09L269.31,476.28L269.49,516.59L269.97,511.99L270.01,500.98L270.14,490.7L270.4,514.81L270.45,478.92L270.49,517.51L271.06,478.19L271.19,506.11L271.23,504.4L271.32,515.58L271.45,491.21L271.67,512.65L271.71,516.87L271.76,513.52L271.8,451.12L272.19,515.75L272.59,504.94L272.63,497.78L272.85,477.31L272.98,513.74L273.02,484.1L273.2,515.78L273.46,428.07L273.76,512.3L273.81,501.1L273.98,452.7L274.55,517.65L274.59,499.85L274.81,516.76L275.25,468.22L275.29,510.96L275.86,462.1L275.99,516.16L276.03,511.45L276.08,512.81L276.21,484.31L276.25,467.75L276.78,517.86L276.99,512.39L277.04,454.71L277.17,515.98L277.52,452.93L277.82,505.86L277.87,509.15L277.91,516.07L278.35,465.44L278.61,513.24L278.65,509.62L278.7,512.29L278.91,487.42L279.09,493.7L279.13,490.6L279.26,473.85L279.66,517.72L279.88,513.62L279.92,509.78L280.49,482.73L280.62,517.93L280.66,514.65L280.7,515.25L280.75,483.33L281.32,471.54L281.45,516.76L281.49,516.18L281.53,471.95L281.75,516.91L282.28,506.6L282.32,502.21L282.76,476.61L282.8,516.72L283.02,512.83L283.06,473.17L283.37,517.75L283.85,498.48L283.89,507.89L283.93,508.71L284.07,500.32L284.11,496.45L284.46,517.67L284.55,485.01L284.89,517.4L284.94,513.73L284.98,517.58L285.16,499.29L285.59,507.42L285.64,496.17L285.81,455.06L286.03,518.08L286.16,512.39L286.2,463.51L286.64,517.84L286.99,507.06L287.03,501.84L287.34,488.81L287.78,517.79L287.82,503.5L288.21,517.07L288.47,470.2L288.56,495.26L288.6,502.99L288.95,516.05L289.08,470.45L289.26,511.37L289.3,473.96L289.61,461.79L289.87,517.78L290.05,509.67L290.09,445.57L290.57,516.97L290.87,513.98L290.92,487.99L291.18,514.45L291.31,461.2L291.7,505.55L291.75,507.74L292.01,480.54L292.31,514.72L292.36,454.28L293.14,516.55L293.19,487.7L293.49,469.83L293.76,515.37L293.97,507.46L294.02,511.63L294.41,518.32L294.58,464.33L294.76,469.07L294.8,513.03L294.89,517.68L294.93,503.64L295.2,488.18L295.54,517.55L295.68,515.26L295.72,484.78L296.29,517.49L296.51,513.21L296.55,506.76L296.68,499.2L296.94,518.06L297.16,514.1L297.2,479.05L297.47,469.6L297.9,518.08L297.99,516.52L298.03,510.98L298.43,498.86L298.69,517.85L298.73,505.24L298.77,499.91L299.21,517.15L299.39,511.88L299.43,513.81L299.56,517.76L300,472.29L300.17,498.57L300.22,513.52L300.48,517.15L300.52,455.15L301,484.65L301.04,505.69L301.09,505.07L301.13,516.12L301.26,490.06L301.48,503.74L301.52,515.65L301.79,469.5L302,516.04L302.14,506.71L302.18,513.34L302.22,516.29L302.4,498.77L302.7,501.11L302.75,485.6L303.23,482.6L303.49,516.3L303.53,489.4L303.62,453.84L304.06,518.18L304.32,515.09L304.36,486.86L304.49,464.06L304.75,517.86L305.19,516L305.23,516.7L305.28,472.44L305.72,517.23L305.98,508.28L306.02,484.87L306.24,464.62L306.33,517.96L306.76,492.91L306.81,505.68L306.85,435.67L307.5,516.65L307.55,512.45L307.59,504.03L307.64,506.63L307.68,467.37L308.03,515.33L308.38,464.89L308.46,494.99L308.51,512.43L308.86,452.64L308.99,517.55L309.25,466.73L309.29,516.81L310.08,448.46L310.12,476.14L310.17,507.45L310.25,517.2L310.47,471.28L310.73,492.1L310.78,465.69L311.21,462.64L311.26,517.54L311.56,510.81L311.61,503.59L311.65,482.25L311.96,516.71L312.35,497.9L312.39,508.74L312.66,479.01L313,516.3L313.05,494.63L313.57,458.48L313.66,518.28L313.83,516.96L313.88,505.98L313.92,507.05L313.96,491.1L314.01,483.07L314.1,517.9L314.27,480.83L314.79,513.64L314.84,517.6L315.01,517.63L315.62,482.72L315.67,493.37L315.71,515.06L315.89,517.94L316.19,487.23L316.41,514.94L316.45,517.58L316.76,517.98L317.15,498.96L317.24,511.23L317.28,517.62L317.46,517.64L317.76,481.92L317.81,516.33L317.85,517.97L317.94,501.26L318.24,517.7L318.29,496.41L318.59,487.14L318.68,518.04L319.03,514.05L319.07,500.98L319.29,468.38L319.6,517.9L319.86,508.98L319.9,509.07L320.16,517.81L320.29,490.59L320.64,515.01L320.69,506.73L320.95,495.43L321.08,516.78L321.43,502.09L321.47,513.61L321.87,465.84L322,518.43L322.17,509.75L322.21,517.99L322.52,487.43L322.74,507.91L322.78,515.1L322.96,480.18L323.09,518.49L323.52,502.03L323.57,511.05L323.83,504.08L323.96,518.39L324.22,514.8L324.27,498.26L324.79,518.09L325.05,514.68L325.1,516.82L325.31,518.12L325.84,498.16L325.88,517.23L325.92,518.18L325.97,509.14L326.32,511.1L326.36,510.1L326.45,518.56L326.75,469.1L327.06,510.83L327.1,513.31L327.23,471.3L327.36,516.75L327.76,510.58L327.8,512.37L327.98,492.7L328.37,516L328.5,494.66L328.54,507.18L328.59,480.8L329.07,518.01L329.24,516.81L329.29,507.74L329.77,488.4L330.07,518.09L330.11,517.28L330.77,439.27L330.81,510.03L330.86,517.76L331.38,481.64L331.42,518.01L331.6,517.37L331.64,518.31L331.82,477.55L332.38,502.93L332.43,513.15L332.47,512.36L332.52,491.19L333.08,517.38L333.13,465.98L333.17,501.75L333.21,512.29L333.43,479.11L333.52,513.97L334,488.05L334.04,513.79L334.22,465.83L334.26,517.39L334.83,486.29L334.87,516.6L335.05,516.82L335.35,484.14L335.61,516.01L335.66,512.41L335.83,480.45L336.23,517.45L336.31,482.09L336.36,517.87L336.49,490.05L336.62,510.83L336.66,475.32L337.45,518.33L337.49,516.69L338.02,472.45L338.19,518.13L338.28,479.88L338.32,515.79L338.67,481.74L338.89,518.07L339.06,512.72L339.11,511.01L339.28,517.63L339.32,499.31L339.63,514.97L339.67,452.66L340.37,517.07L340.46,509.77L340.5,496.92L341.07,517.31L341.29,516L341.33,503.51L341.77,517.2L342.07,449.59L342.12,517.71L342.16,468.25L342.86,515.55L342.9,509.88L343.12,517.72L343.3,488.76L343.56,506.52L343.6,479.81L343.69,518.08L344.34,497.56L344.39,496.3L344.82,517.4L344.91,494.95L345.17,516.14L345.22,513.81L345.74,517.56L345.96,479.78L346,512.34L346.09,506.79L346.31,515.3L346.35,517.11L346.66,517.18L346.79,497.05L346.96,513.73L347.01,517.84L347.09,441.99L347.66,485.43L347.71,515.2L347.84,505.99L347.92,517.92L347.97,513.03L348.01,482.9L348.23,517.96L348.75,515.82L348.8,513.88L348.97,517.6L349.01,509.46L349.06,464.52L349.41,518.08L349.84,506.36L349.89,516.13L350.11,518.04L350.32,495.79L350.37,510.52L350.41,515.17L350.46,516.34L350.54,501.92L350.59,495.77L351.07,473.22L351.24,517.03L351.28,512.69L351.33,436.32L351.42,517.84L352.11,514.64L352.16,476.11L352.81,516.94L352.94,507.46L352.99,516.53L353.55,517.29L353.73,451.95L353.77,515.64L353.82,517.39L353.86,493.7L353.99,510.5L354.03,491.63L354.34,473.55L354.51,517.01L354.82,508.71L354.86,509.49L354.91,510.76L354.99,498.05L355.04,481.77L355.3,518L355.69,501.9L355.74,427.95L356.09,516.42L356.52,512.52L356.57,508.14L356.78,516.71L357,483.73L357.05,484.61L357.09,485.41L357.13,504.95L357.4,516.94L357.53,507.34L357.57,477.87L357.66,517.56L358.27,465.41L358.36,504.88L358.4,514.52L358.79,515.21L358.92,468.37L359.14,511.93L359.18,506.49L359.23,515.44L359.45,485.2L359.8,511.71L359.84,488.83L359.93,463.26L359.97,516.32L360.15,502.38L360.19,513.04L360.32,515.23L360.45,484.85L360.93,500.5L360.97,511.61L361.11,505.68L361.15,469.04L361.37,513.51L361.59,455.21L361.93,512.86L361.98,512.38L362.11,517.22L362.37,472.35L362.76,502.25L362.81,505.29L363.37,517.56L363.42,490.39L363.55,504.53L363.59,516.94L363.64,467.39L364.12,518.3L364.34,514.11L364.38,509.39L364.55,517.6L364.95,496.85L364.99,499.17L365.03,518.04L365.38,493.95L365.78,499L365.82,514.51L365.86,514.92L365.91,502.75L365.99,517.48L366.17,512.32L366.21,458.95L366.69,518.27L367,492.98L367.04,473.05L367.39,518.38L367.83,516.9L367.87,514.39L368.26,518.07L368.57,484.2L368.66,503.48L368.7,512.41L368.92,491.79L368.96,517.85L369.09,504.64L369.14,460.15L369.62,518.13L369.88,453.98L369.92,511.74L369.97,515.6L370.14,502.82L370.18,517.41L370.45,515.43L370.49,471.1L370.53,470.24L370.58,495.71L370.75,481.43L371.1,518.31L371.28,502.38L371.32,491.33L371.36,486.84L371.71,517.54L371.84,515.34L371.89,513.9L371.93,517.97L372.19,491.85L372.5,516.08L372.54,486L372.67,518.11L372.89,455.56L373.28,492.45L373.33,483.86L373.89,445.6L373.94,516.83L374.11,509.59L374.16,486.47L374.2,516.74L374.29,449.28L374.9,498.68L374.94,507.62L375.03,478.13L375.47,515.86L375.73,484.88L375.77,506.85L375.86,510L375.9,492.3L376.08,485.45L376.56,516.04L376.64,510.42L376.69,493.06L376.91,515.67L377.43,513.74L377.47,482.24L377.82,516.52L378.26,510.43L378.3,514.48L378.7,460.99L378.78,516.95L379.04,514.13L379.09,515.49L379.66,517.54L379.74,474.53L379.83,508.6L379.87,517.74L380.01,518.06L380.4,483.94L380.62,513.88L380.66,506.61L380.88,475.26L381.31,517.45L381.36,513.51L381.4,515.69L381.49,466.13L381.62,506.95L381.66,517.78L382.19,483.92L382.36,517.7L382.41,517.96L382.8,499.76L382.84,517.21L383.45,493.78L383.54,518.29L383.58,514.3L383.63,512.12L384.06,497.63L384.24,518.1L384.37,516.73L384.41,514.81L384.5,512.97L384.54,517.68L384.59,515.3L384.63,478.47L384.76,464.77L385.37,518.24L385.42,517.86L385.46,514.17L385.5,508.57L385.68,518.38L386.16,517.21L386.2,516.74L386.25,516.39L386.29,508.01L386.77,518.01L386.95,496.03L387.08,516.76L387.12,517.01L387.25,518.35L387.51,509.63L387.6,517.67L387.64,494.92L387.91,479.71L388.17,518.07L388.3,512.01L388.34,517.83L388.69,491.03L388.73,518.33L389.08,503.56L389.13,508.97L389.56,497.84L389.7,518.16L389.74,494.35L390.52,518.4L390.57,500.05L390.74,518.52L391.05,490.61L391.31,515.57L391.35,488.59L391.62,518.37L392.1,517.28L392.14,511.15L392.27,518.13L392.71,500.81L392.75,495.08L393.41,517.57L393.49,516.49L393.54,510.85L393.58,484.43L393.62,518.22L394.28,516.62L394.32,517.6L394.5,510.66L394.58,518.66L394.63,517.69L394.67,498.48L394.85,518.34L395.46,518.27L395.5,496.48L395.67,518.41L396.11,485.52L396.29,513.67L396.33,494.14L396.55,490.25L396.64,518.42L397.07,512.37L397.12,487.63L397.25,518.11L397.86,513.81L397.9,497.37L398.08,518.42L398.64,510.33L398.69,505.34L398.86,518.59L398.95,448.36L399.39,506.2L399.43,493.69L399.95,490.23L400,517.32L400.17,505.07L400.21,481.7L400.96,518.05L401,507.15L401.04,513.39L401.13,494.21L401.44,518.14L401.79,511.82L401.83,518.31L402.4,497.42L402.57,514.51L402.62,518.37L402.92,496.6L403.4,509.62L403.44,513.22L403.53,517.86L403.58,478.7L404.19,517.32L404.23,510.33L404.32,505.36L404.54,518.41L404.93,513.81L404.97,515.07L405.02,517.8L405.1,510.84L405.15,479.98L405.76,517.88L405.93,511.5L405.98,515.99L406.06,501.42L406.11,517.69L406.41,509.04L406.46,489.35L406.59,480.78L407.2,518.23L407.24,512.76L407.29,463.42L408.07,517.33L408.11,518.36L408.55,478.01L408.9,500.71L408.94,510.84L409.21,492.87L409.64,518.04L409.69,492.56L409.9,446.6L410.47,516.89L410.52,505.09L410.65,487.67L410.91,518.35L411.21,496.09L411.26,512.62L411.3,516.09L411.48,475.49L411.96,514.11L412,487.19L412.35,464.3L412.57,518.19L412.74,509.63L412.79,511.27L413.31,517.9L413.35,497.36L413.4,496.52L413.75,517.75L413.79,477.52L414.18,514.16L414.23,462.82L414.44,517.4L414.57,450.17L415.01,511.16L415.05,500.83L415.36,469.37L415.49,510.32L415.54,495.68L415.58,443.45L415.67,516.54L416.36,500.08L416.41,485.54L416.54,516.86L417.15,482.76L417.19,504.7L417.24,517.9L417.28,469.64L417.94,516.81L417.98,512.52L418.33,517.87L418.42,487.51L418.68,511.42L418.72,493.29L418.85,518.52L419.07,463.65L419.46,505.36L419.51,508.97L420.03,518.44L420.21,503.9L420.29,518.04L420.34,490.2L420.86,518.43L421.08,516.98L421.12,505.61L421.52,497L421.78,517.98L421.82,518.26L422.26,500.5L422.61,511.45L422.65,518.04L422.82,496.4L422.96,518.49L423.39,505.97L423.44,513.12L423.48,517.43L424,493.39L424.13,512.7L424.18,507.54L424.22,518.25L424.26,499.29L424.88,514.73L424.92,476.12L425.18,518.63L425.71,513.78L425.75,516.99L426.01,506.59L426.1,518.06L426.32,516L426.36,517.52L426.49,479.51L426.97,518.51L427.06,514.56L427.1,518.1L427.19,479.22L427.28,518.55L427.84,513.02L427.89,511.07L427.93,517.9L428.02,497.29L428.63,517.72L428.67,505.64L428.98,518.15L429.15,502.62L429.46,514.36L429.5,511.5L429.59,500.66L429.9,518.5L430.07,517.69L430.11,502.97L430.38,518.47L430.72,483.6L430.9,513.12L430.94,503.28L431.21,484.99L431.64,518.22L431.73,517.93L431.77,516.54L431.9,492.92L432.08,509.45L432.12,513.25L432.21,515.84L432.25,511.8L432.82,481.05L432.95,517.94L432.99,514.89L433.04,518.07L433.47,518.64L433.56,478.75L433.82,495.75L433.87,510.59L433.91,490.67L434.48,518.27L434.57,510.24L434.61,516.09L435.05,494.07L435.26,518.4L435.35,518.34L435.4,504.46L435.44,518.48L435.61,487.61L436.09,517.62L436.14,469.05L436.49,518.48L436.92,518.16L436.97,511.96L437.14,518.4L437.45,501.59L437.71,510.59L437.75,515.84L437.8,518.54L437.88,507.21L437.93,516.35L437.97,485.67L438.45,483.27L438.67,518.39L438.71,515.94L438.76,505.48L439.02,498.09L439.06,518.55L439.54,517.86L439.59,508.89L439.63,488.87L440.28,518.49L440.33,517.6L440.5,499.7L440.81,518.04L441.07,514.59L441.11,518.37L441.16,517.87L441.2,487.79L441.24,487.59L441.29,511.32L441.64,505.35L441.72,518.48L441.99,515.53L442.03,505.9L442.2,503.9L442.25,518.62L442.77,513.93L442.82,492.23L442.86,478.5L443.08,517.83L443.51,508.8L443.56,513.52L443.6,517.9L443.82,474.23L444.21,514.25L444.26,507.03L444.3,517.99L444.82,482.76L444.95,496.48L445,495.74L445.17,517.85L445.43,459.66L445.78,510.14L445.83,500.93L445.96,438.15L446.26,516.63L446.57,472.74L446.61,503.2L446.74,454.13L447.22,516.32L447.27,498.84L447.31,434.41L447.7,517.24L448.1,507.87L448.14,502.46L448.18,515.98L448.75,463.13L448.8,422.97L448.97,517.55L449.62,514.33L449.67,486.96L449.84,451.95L450.15,517.21L450.37,497.79L450.41,460.87L450.93,455.3L451.2,515.93L451.24,489.74L451.81,517.39L451.98,516.94L452.03,500.11L452.51,477.1L452.59,516.88L452.72,516.38L452.77,517.15L453.25,518.13L453.42,503.75L453.55,507L453.6,513.61L453.86,481.81L454.3,518.21L454.34,507.45L454.38,517.22L454.47,515.66L454.51,517.41L454.56,516.73L454.6,477.42L454.95,518.51L455.39,513.55L455.43,483.86L455.6,518.2L455.78,477.53L456.17,503.48L456.22,514.27L456.43,492.63L456.83,518.24L456.87,514.11L456.91,497.83L457.35,495.17L457.48,517.97L457.53,482.1L457.7,518.32L458.14,467.42L458.31,511.23L458.35,492.8L458.88,518.24L459.05,488.23L459.14,510.52L459.18,515.55L459.23,517.71L459.4,505.46L459.58,514.35L459.62,496.48L460.01,518.46L460.36,515.57L460.41,504.95L460.49,501.2L461.1,518.44L461.19,517.75L461.24,517.57L461.63,470.26L461.89,518.21L461.98,509.51L462.02,516.75L462.59,500.47L462.68,518.35L462.76,508.4L462.81,516.69L463.07,479.96L463.37,518.38L463.55,513.08L463.59,515.31L463.9,517.79L463.99,482.07L464.07,509.85L464.12,511.6L464.29,518.05L464.86,483.93L464.9,516.35L464.95,483.84L465.43,518.38L465.64,500.38L465.69,517.25L465.91,514.95L465.95,516.29L465.99,511.88L466.25,506.03L466.6,518.04L466.78,516.06L466.82,516.79L466.95,518.25L467.13,494.86L467.3,499.25L467.35,518.29L467.39,517.69L467.43,504.88L467.65,500.85L468.09,518.62L468.22,518.08L468.26,510.88L468.61,518.51L468.79,496.08L468.92,509.33L468.96,489.58L469.14,518.31L469.22,485.94L469.7,514.51L469.75,513.64L470.1,518.58L470.18,507.11L470.23,512.36L470.27,494.61L470.31,474.81L470.79,518.4L470.97,515.74L471.01,517.19L471.06,496.17L471.19,518.51L471.75,508.23L471.8,515.28L472.15,518.45L472.28,499.91L472.54,501.45L472.58,517.21L472.8,483.45L472.89,518.56L473.28,516.43L473.33,513.06L473.41,477.35L473.98,517.65L474.02,505.05L474.07,518.45L474.77,496.34L474.81,504.91L474.85,516.77L475.29,505.94L475.33,517.64L475.51,515.06L475.55,517.91L475.9,518.5L476.16,472.72L476.29,498.46L476.34,515.5L476.42,503.65L476.69,518.26L477.04,513.68L477.08,511.75L477.25,476.96L477.39,517.05L477.52,514.36L477.56,514.08L477.78,495.15L477.87,518.37L478.13,517.87L478.17,492.48L478.83,518.19L478.96,516.1L479,515.06L479.26,518.25L479.48,507.86L479.7,518.15L479.74,495.79L480.35,518.37L480.53,516.66L480.57,463.36L480.96,518.36L481.36,516.85L481.4,515.51L481.44,484.62L481.62,517.9L482.14,507.17L482.19,518.41L482.32,492.3L482.58,518.5L482.97,508.56L483.02,511.92L483.1,499.48L483.23,518.18L483.5,516.22L483.54,498.16L484.19,518.4L484.28,512.23L484.33,492.44L485.02,518.2L485.07,516.49L485.11,506.32L485.37,518.24L485.63,510.09L485.68,459.16L486.07,518.23L486.42,509.99L486.46,475.01L486.86,469.44L487.03,518.41L487.25,517.51L487.29,509.27L487.47,484.82L487.51,516.66L487.73,518.41L487.82,476.94L488.3,496.84L488.34,517.03L488.82,497.01L489.04,518.2L489.08,514.06L489.13,511.45L489.39,517.96L489.61,497.04L489.87,497.86L489.91,515.91L490.04,469.78L490.61,517.31L490.65,509.48L490.83,518.56L490.87,518.31L490.92,506.07L491.48,484.27L491.75,518.22L491.79,507.98L492.4,481.88L492.44,518.57L492.57,517.94L492.62,504.93L492.88,518.62L493.23,487.09L493.32,511.95L493.36,517.99L493.4,517.59L493.45,508.53L493.58,518.27L493.84,486.52L494.15,490.06L494.19,515.98L494.71,497.16L494.8,518.19L494.93,509.2L494.98,517.45L495.15,518.39L495.24,490.72L495.67,516.88L495.72,517.04L495.94,517.83L496.42,494.88L496.46,512.97L496.5,517.32L496.55,517.75L496.59,507.18L496.9,517.97L497.2,482.18L497.29,490.15L497.33,515.34L497.81,517.63L498.03,486.59L498.07,498.36L498.12,513.89L498.21,516.09L498.25,515.6L498.29,502.98L498.77,456.41L498.86,517.26L498.99,512.77L499.04,508.37L499.38,517.32L499.47,496.1L499.69,507.98L499.73,494.82L499.95,518.07L500,478.09L500.48,506.8L500.52,495.59L500.56,483.26L501.17,517.29L501.22,515.74L501.48,508.69L501.61,518.2L501.7,509.22L501.74,497L502.27,478.12L502.35,518.27L502.48,496.25L502.53,512.19L502.66,518.54L503.05,479.13L503.27,492.91L503.31,517.87L503.44,503.22L503.57,515.65L503.62,516.51L503.75,518.38L503.84,499.45L504.01,508.62L504.05,493.43L504.14,518.42L504.67,490.26L504.8,512.46L504.84,502.28L505.23,518.46L505.49,477.23L505.58,513.32L505.63,515.81L505.98,479.15L506.19,518.61L506.37,511.26L506.41,518.08L506.46,494.02L507.15,517.47L507.2,516.11L507.55,499.14L507.81,518.43L507.94,506.9L507.98,517.44L508.07,517.64L508.24,486.05L508.55,510.71L508.59,516.56L508.77,475.26L508.86,518.25L508.9,514.64L508.94,515.13L509.29,516.57L509.42,491.44L509.47,493.19L509.51,516.63L509.55,516.89L509.6,482.28L509.95,517.8L510.38,516.77L510.43,511.13L510.78,477.8L510.91,518.22L511.17,515.57L511.21,510.88L511.78,518.05L511.91,498.81L511.96,509.11L512,515.82L512.04,508.44L512.26,518.39L512.74,516.1L512.78,518.28L513,513.29L513.05,516.1L513.09,495.99L513.4,518.28L513.83,517.98L513.88,509.93L514.01,518.57L514.27,454.34L514.62,511.12L514.66,509.5L515.05,518.54L515.14,490.05L515.4,518.38L515.45,513.1L515.53,511.14L515.58,517.56L515.62,488.45L516.06,518.39L516.36,514.69L516.41,493.6L516.97,518.21L517.15,515.92L517.19,506.77L517.24,500.9L517.32,518.47L517.89,511.63L517.93,516.6L518.2,518.4L518.46,475.49L518.68,514.46L518.72,517.46L518.76,517.99L518.81,517.13L518.85,517.95L518.9,499.94L519.55,518.45L519.68,517.55L519.72,511.94L519.9,506.69L520.29,518.67L520.38,517.74L520.42,491.48L520.47,518.65L521.16,508.44L521.21,474.69L521.25,518.48L521.99,518.31L522.04,507.98L522.13,492.75L522.82,518.49L522.95,517.58L523,516.05L523.04,517.53L523.13,509.97L523.17,510.69L523.22,486.72L523.26,484.69L523.3,517.92L523.35,517.81L523.39,518.44L523.48,518.49L523.78,478.34L524,496.1L524.05,518.41L524.09,517.84L524.13,485.56L524.61,518.32L524.88,517L524.92,498.54L525.44,496.38L525.62,518.52L525.7,517.67L525.75,513.19L525.92,480.08L526.18,518.43L526.32,518.19L526.36,492.45L526.62,518.6L527.14,518.22L527.19,517.38L527.45,518.34L527.58,501.13L527.93,516.18L527.97,518L528.54,518.52L528.59,457.43L528.8,489.78L528.85,510.76L529.15,503.99L529.41,518.39L529.46,484.74L530.11,518.21L530.24,514.82L530.29,511.27L530.33,510.99L530.37,516.49L530.81,518.63L531.03,494.82L531.07,517.84L531.12,518.13L531.16,518.53L531.29,518.42L531.33,511.21L531.82,494.27L531.95,518.04L531.99,493.19L532.16,482.17L532.64,518.14L532.78,518.13L532.82,515.37L532.86,518.3L533.08,496.54L533.12,511.05L533.17,482.72L533.52,518.22L533.91,515.18L533.95,483.45L534.17,518.1L534.48,517.73L534.52,490.58L534.91,518.32L535.09,461.05L535.26,516.22L535.31,516.17L535.79,483.94L535.96,517.11L536.05,499.99L536.09,514.87L536.22,512.21L536.27,466.24L536.53,460.03L536.7,518.23L537.05,514.95L537.1,517.49L537.84,518.32L537.88,493.03L537.93,504.8L537.97,518.46L538.06,517.54L538.1,508.46L538.14,493.55L538.41,518.51L538.8,505.03L538.84,516.83L539.28,496.38L539.54,518.51L539.58,513.54L539.63,517.49L539.76,518.53L540.06,465.61L540.37,517.69L540.41,517.9L540.68,518.44L540.89,468.08L541.2,497.51L541.24,516.32L541.37,518.36L541.42,503.4L541.72,511.49L541.77,504.87L541.99,494.12L542.12,516.69L542.42,507.46L542.47,475.4L543.12,518.56L543.25,517.24L543.29,511L543.43,518L543.6,482.69L544.04,514.29L544.08,513.59L544.6,518.49L544.78,493.73L544.82,510.78L544.87,516.79L545.04,518.41L545.22,507.14L545.26,511.43L545.3,506.51L545.39,518.56L545.96,497.1L546.09,515.11L546.13,517.09L546.18,495.56L546.39,518.55L546.87,517.54L546.92,517.79L547.05,518.36L547.4,506.7L547.66,518.29L547.7,517.38L547.88,518.44L548.27,486.42L548.4,518.43L548.45,517.59L548.53,510.98L548.58,518.35L548.62,506.59L548.97,502.52L549.41,518.48L549.45,507.03L549.58,518.46L549.62,477.8L550.15,518.09L550.19,490.75L550.98,518.43L551.02,487.55L551.24,472.24L551.76,518.22L551.81,516.71L551.85,512.68L552.02,462.49L552.2,518.64L552.55,515.53L552.59,506.36L552.77,494.01L552.9,518.56L553.33,517.61L553.38,507.22L553.42,489.28L553.73,518.21L554.08,510.76L554.12,516.37L554.21,518.07L554.25,514.57L554.29,515.63L554.34,507.29L554.73,487.34L554.99,518.16L555.04,510.83L555.08,516.37L555.12,518.65L555.43,494.38L555.47,515.05L555.52,488.42L555.65,517.88L555.91,484.92L556.3,516.1L556.35,518.49L556.56,423.03L556.61,501.83L556.65,510.46L556.87,518.44L556.96,503.72L557.48,517.31L557.52,515.96L557.57,517.87L557.79,507.14L557.87,517.38L557.92,501.13L558.4,498.12L558.66,518.58L558.7,514.67L558.75,503.41L558.96,485.07L559.05,518.35L559.49,516.75L559.53,506.37L559.71,518.38L559.97,480.11L560.27,517.95L560.32,515.72L560.41,518.2L560.62,503.93L560.67,516.15L560.71,494.33L560.89,483.75L561.1,517.49L561.45,506.12L561.5,494.66L561.98,518.33L562.06,492.57L562.28,514.36L562.33,518.16L562.94,486.14L563.11,505.64L563.15,517.09L563.46,518.42L563.72,485.73L563.77,512.98L563.81,517.73L564.25,490.18L564.42,518.35L564.55,509.37L564.6,513.81L564.9,505.69L565.16,517.8L565.25,515.21L565.29,508.13L565.42,518.62L565.51,494.8L566.08,517.5L566.12,515.45L566.34,514.24L566.47,517.98L566.56,516.76L566.6,505.22L566.91,518.31L567.17,496.6L567.3,515.82L567.35,498.94L567.83,484.58L567.96,518.24L568,488.19L568.04,443.89L568.44,518.18L568.83,510.93L568.87,504.57L569.22,517.17L569.53,495.75L569.7,515.93L569.75,510.66L569.92,517.87L570.27,465.25L570.44,517.45L570.49,515.96L570.53,518.53L570.79,507.09L570.84,518.18L570.88,488.38L571.06,518.28L571.58,503.73L571.62,471.99L572.28,518.46L572.41,509.78L572.45,508.58L572.5,438.58L573.19,516.93L573.24,506.12L573.59,518.25L573.98,475.49L574.02,501.21L574.24,517.79L574.5,475.09L574.55,517.44L574.9,477.06L575.07,517.87L575.2,503.04L575.25,513.95L575.64,518.45L576.03,470.61L576.07,510.91L576.47,517.77L576.51,493.36L576.69,511.23L576.73,488L577.3,467.52L577.52,517.89L577.56,514.4L577.86,517.84L578.04,493.31L578.34,498.26L578.39,514.11L578.48,473.36L578.56,518.05L578.91,491.6L578.96,492.33L579.44,518.27L579.7,515.56L579.74,510.85L579.92,518.54L580.09,502.19L580.35,518.34L580.4,472.03L580.83,517.65L581.18,500.54L581.23,500.48L581.49,518.17L581.84,470.98L581.97,502.41L582.01,510.59L582.19,465.62L582.32,518L582.75,515.66L582.8,512.97L582.88,517.98L583.19,490.22L583.28,511.81L583.32,495.75L583.54,517.79L583.76,493.77L583.89,508.1L583.93,481.86L584.24,518.28L584.63,514.38L584.67,449.85L585.2,518.43L585.46,517.68L585.5,515.1L585.55,493.7L586.2,517.68L586.25,514.31L586.29,518.41L586.86,474.51L586.94,501.95L586.99,517.46L587.29,518.33L587.51,495.06L587.77,498.08L587.82,517.37L588.47,488.57L588.56,518.35L588.6,514.03L588.65,518.55L588.69,491.92L589.34,517.15L589.39,516.29L589.43,518.54L589.78,506.68L589.82,495.69L590.17,518.56L590.48,488.27L590.57,516.99L590.61,501.81L590.7,518.59L591.13,489L591.44,518.3L591.48,518.36L591.61,517.07L591.66,518.52L591.7,506.52L592.22,482.43L592.36,517.96L592.4,454.51L592.44,517.56L593.14,508.27L593.19,514.55L593.23,439.59L593.8,518.58L593.93,515.49L593.97,487.95L594.41,518.43L594.71,517.37L594.76,484.8L594.8,518.53L595.54,517.55L595.59,518.43L595.63,518.2L595.67,513.48L595.72,512.98L595.89,518.59L595.93,505.67L596.55,518.59L596.59,492.45L596.72,518.37L596.76,508.51L596.81,506.99L596.9,518.5L597.03,512.9L597.07,484.77L597.24,518.41L597.81,512.08L597.86,497.35L597.94,517.94L598.34,487.8L598.51,509.23L598.55,460.64L598.68,517.15L599.3,515.14L599.34,475.26L600.08,517.34L600.13,513.48L600.17,515.88L600.43,517.91L600.69,501.79L600.91,516.7L600.95,517.83L601.17,518.32L601.48,500.2L601.65,504.58L601.7,517.99L601.74,518.32L601.83,515.58L601.87,511.35L601.96,518.52L602.26,502.74L602.61,518.36L602.66,480.76L603.31,518.55L603.44,517.23L603.49,512.15L603.66,518.3L603.7,503.95L604.36,518.6L604.4,517.45L604.45,500.31L604.93,518.28L605.06,493L605.23,516.14L605.28,508.33L605.67,518.48L605.89,505.61L606.06,518.09L606.11,504.98L606.19,518.22L606.32,484.96L606.89,512.32L606.93,506.59L606.98,518.49L607.2,506.33L607.72,517.99L607.76,517.69L608.07,518.07L608.29,487.24L608.46,514.39L608.51,518.36L608.59,517.36L608.64,518.49L608.68,503.37L609.03,518.62L609.42,514.65L609.47,515.41L609.6,518.55L609.73,504.46L610.16,518.33L610.21,505.25L610.25,518.51L610.82,488.87L610.99,518.43L611.04,518L611.08,518.2L611.12,504.83L611.82,518.43L611.91,517.6L611.95,511.63L612.13,488.83L612.3,518.31L612.61,517.7L612.65,489.86L613.22,518.46L613.44,517.1L613.48,516.79L613.7,518.55L614.27,488.94L614.31,516.02L614.35,518.52L614.4,494.2L614.7,515.45L614.75,491.91L614.79,518.49L615.53,515.88L615.58,513.97L615.88,490.15L616.1,518.5L616.14,512.55L616.19,497.86L616.32,518.66L616.93,514.45L616.97,510.62L617.06,505.12L617.1,513.76L617.15,515.93L617.37,518.42L617.41,496.86L617.54,514.24L617.58,518.41L617.85,481.62L618.33,517.61L618.37,517.02L618.59,518.48L619.03,499.13L619.07,518.22L619.24,518.39L619.29,515.67L619.37,518.35L619.42,495.12L619.99,518.64L620.07,512.67L620.12,478.71L620.25,518.54L620.86,515.17L620.9,498.86L620.99,518.65L621.43,497.14L621.69,516.77L621.73,504.18L621.78,517.88L621.86,470.57L622.43,512.89L622.47,491.07L623.04,518.58L623.17,517.94L623.22,474.04L623.96,518.53L624,514.42L624.04,518L624.13,516.47L624.18,480.24L624.44,518.57L624.96,518.18L625.01,518.07L625.09,518.43L625.4,492.53L625.62,510.62L625.66,515.75L626.01,518.42L626.1,495.9L626.4,508.29L626.45,515.47L626.49,501.47L627.06,518.48L627.19,517.91L627.23,517.71L627.32,485.08L627.8,518.63L627.93,514.9L627.97,517.52L628.15,518.66L628.37,498.79L628.72,516L628.76,517.63L628.98,518.67L629.24,502.78L629.5,514.66L629.54,513.25L629.76,480.71L629.81,518.26L629.89,516.7L629.94,517.26L630.29,518.59L630.59,491.97L630.68,516.93L630.72,518.59L630.98,518.63L631.29,499.02L631.46,518.34L631.51,518.49L631.55,487.51L631.77,518.56L632.25,514.38L632.29,504.46L632.69,500.73L633.04,517.95L633.08,516.67L633.12,518.57L633.21,512.72L633.3,518L633.34,506.34L633.65,518.23L633.95,478.07L634,518.18L634.21,518.63L634.65,497.76L634.74,516.12L634.78,513.39L634.96,500.95L635,518.63L635.18,513.53L635.22,518.41L635.48,466.28L635.61,518.58L635.74,513.5L635.79,512.7L635.83,512.28L635.96,518.57L636,501.7L636.09,518.58L636.22,487.19L636.79,517.75L636.83,511.08L636.88,471.76L637.1,518.42L637.53,518.34L637.58,517.99L637.92,518L638.36,478.96L638.41,513.86L638.49,473.36L638.89,518.59L638.93,516.47L638.97,515.77L639.19,517.25L639.28,509.51L639.32,492.53L639.41,472.05L639.71,518.47L640.11,514.83L640.15,515.01L640.24,517.76L640.5,511.84L640.54,514.41L640.59,504.38L640.85,498.43L640.94,518.47L641.37,513.45L641.42,513.71L641.55,502.31L641.77,518.36L642.2,517.78L642.25,463.62L642.81,518.53L643.03,517.85L643.08,511.23L643.47,518.63L643.56,497.1L643.82,517.67L643.86,505.43L644.04,492.45L644.34,518.57L644.52,498.73L644.56,485.31L644.95,518.57L645.26,513.13L645.3,492.26L645.74,487.86L645.83,518.55L646,517.19" style="vector-effect: non-scaling-stroke; fill: none; stroke: rgb(31, 119, 180); stroke-opacity: 1; stroke-width: 2px; opacity: 1;"/></g><g class="points"/><g class="text"/></g></g></g><g class="overplot"/><path class="xlines-above crisp" d="M0,0" style="fill: none;"/><path class="ylines-above crisp" d="M0,0" style="fill: none;"/><g class="overlines-above"/><g class="xaxislayer-above"><g class="xtick"><text text-anchor="middle" x="0" y="619" transform="translate(60.04,0)" style="font-family: 'Open Sans', verdana, arial, sans-serif; font-size: 12px; fill: rgb(68, 68, 68); fill-opacity: 1; white-space: pre; opacity: 1;">0</text></g><g class="xtick"><text text-anchor="middle" x="0" y="619" style="font-family: 'Open Sans', verdana, arial, sans-serif; font-size: 12px; fill: rgb(68, 68, 68); fill-opacity: 1; white-space: pre; opacity: 1;" transform="translate(147.34,0)">2k</text></g><g class="xtick"><text text-anchor="middle" x="0" y="619" style="font-family: 'Open Sans', verdana, arial, sans-serif; font-size: 12px; fill: rgb(68, 68, 68); fill-opacity: 1; white-space: pre; opacity: 1;" transform="translate(234.64,0)">4k</text></g><g class="xtick"><text text-anchor="middle" x="0" y="619" style="font-family: 'Open Sans', verdana, arial, sans-serif; font-size: 12px; fill: rgb(68, 68, 68); fill-opacity: 1; white-space: pre; opacity: 1;" transform="translate(321.94,0)">6k</text></g><g class="xtick"><text text-anchor="middle" x="0" y="619" style="font-family: 'Open Sans', verdana, arial, sans-serif; font-size: 12px; fill: rgb(68, 68, 68); fill-opacity: 1; white-space: pre; opacity: 1;" transform="translate(409.23,0)">8k</text></g><g class="xtick"><text text-anchor="middle" x="0" y="619" style="font-family: 'Open Sans', verdana, arial, sans-serif; font-size: 12px; fill: rgb(68, 68, 68); fill-opacity: 1; white-space: pre; opacity: 1;" transform="translate(496.53,0)">10k</text></g><g class="xtick"><text text-anchor="middle" x="0" y="619" style="font-family: 'Open Sans', verdana, arial, sans-serif; font-size: 12px; fill: rgb(68, 68, 68); fill-opacity: 1; white-space: pre; opacity: 1;" transform="translate(583.83,0)">12k</text></g><g class="xtick"><text text-anchor="middle" x="0" y="619" style="font-family: 'Open Sans', verdana, arial, sans-serif; font-size: 12px; fill: rgb(68, 68, 68); fill-opacity: 1; white-space: pre; opacity: 1;" transform="translate(671.12,0)">14k</text></g></g><g class="yaxislayer-above"><g class="ytick"><text text-anchor="end" x="59" y="4.199999999999999" transform="translate(0,578.7)" style="font-family: 'Open Sans', verdana, arial, sans-serif; font-size: 12px; fill: rgb(68, 68, 68); fill-opacity: 1; white-space: pre; opacity: 1;">0</text></g><g class="ytick"><text text-anchor="end" x="59" y="4.199999999999999" style="font-family: 'Open Sans', verdana, arial, sans-serif; font-size: 12px; fill: rgb(68, 68, 68); fill-opacity: 1; white-space: pre; opacity: 1;" transform="translate(0,520.5699999999999)">0.2</text></g><g class="ytick"><text text-anchor="end" x="59" y="4.199999999999999" style="font-family: 'Open Sans', verdana, arial, sans-serif; font-size: 12px; fill: rgb(68, 68, 68); fill-opacity: 1; white-space: pre; opacity: 1;" transform="translate(0,462.44)">0.4</text></g><g class="ytick"><text text-anchor="end" x="59" y="4.199999999999999" style="font-family: 'Open Sans', verdana, arial, sans-serif; font-size: 12px; fill: rgb(68, 68, 68); fill-opacity: 1; white-space: pre; opacity: 1;" transform="translate(0,404.31)">0.6</text></g><g class="ytick"><text text-anchor="end" x="59" y="4.199999999999999" style="font-family: 'Open Sans', verdana, arial, sans-serif; font-size: 12px; fill: rgb(68, 68, 68); fill-opacity: 1; white-space: pre; opacity: 1;" transform="translate(0,346.18)">0.8</text></g><g class="ytick"><text text-anchor="end" x="59" y="4.199999999999999" style="font-family: 'Open Sans', verdana, arial, sans-serif; font-size: 12px; fill: rgb(68, 68, 68); fill-opacity: 1; white-space: pre; opacity: 1;" transform="translate(0,288.03999999999996)">1</text></g><g class="ytick"><text text-anchor="end" x="59" y="4.199999999999999" style="font-family: 'Open Sans', verdana, arial, sans-serif; font-size: 12px; fill: rgb(68, 68, 68); fill-opacity: 1; white-space: pre; opacity: 1;" transform="translate(0,229.91)">1.2</text></g><g class="ytick"><text text-anchor="end" x="59" y="4.199999999999999" style="font-family: 'Open Sans', verdana, arial, sans-serif; font-size: 12px; fill: rgb(68, 68, 68); fill-opacity: 1; white-space: pre; opacity: 1;" transform="translate(0,171.78)">1.4</text></g><g class="ytick"><text text-anchor="end" x="59" y="4.199999999999999" style="font-family: 'Open Sans', verdana, arial, sans-serif; font-size: 12px; fill: rgb(68, 68, 68); fill-opacity: 1; white-space: pre; opacity: 1;" transform="translate(0,113.65)">1.6</text></g></g><g class="overaxes-above"/></g></g><g class="polarlayer"/><g class="smithlayer"/><g class="ternarylayer"/><g class="geolayer"/><g class="funnelarealayer"/><g class="pielayer"/><g class="iciclelayer"/><g class="treemaplayer"/><g class="sunburstlayer"/><g class="glimages"/><defs id="topdefs-4ca6eb"><g class="clips"/></defs><g class="layer-above"><g class="imagelayer"/><g class="shapelayer"/></g><g class="infolayer"><g class="g-gtitle"><text class="gtitle" x="383" y="30" text-anchor="middle" dy="0em" style="font-family: 'Open Sans', verdana, arial, sans-serif; font-size: 17px; fill: rgb(68, 68, 68); opacity: 1; font-weight: normal; white-space: pre;">loss</text></g><g class="g-xtitle"/><g class="g-ytitle"/></g></svg>